<?xml version="1.0" standalone="no"?>
<!DOCTYPE svg PUBLIC "-//W3C//DTD SVG 20010904//EN"
 "http://www.w3.org/TR/2001/REC-SVG-20010904/DTD/svg10.dtd">
<svg version="1.0" xmlns="http://www.w3.org/2000/svg"
 width="1024.000000pt" height="1024.000000pt" viewBox="0 0 1024.000000 1024.000000"
 preserveAspectRatio="xMidYMid meet">

<g transform="translate(0.000000,1024.000000) scale(0.100000,-0.100000)"
fill="#000000" stroke="none">
<path d="M5780 9500 c0 -5 18 -22 40 -36 22 -15 40 -29 40 -31 0 -3 -18 -2
-40 2 -22 4 -40 4 -40 0 0 -8 140 -75 157 -75 7 0 13 -4 13 -9 0 -6 -24 -7
-55 -4 -30 3 -55 3 -55 0 0 -4 32 -23 71 -43 39 -19 69 -37 67 -40 -3 -2 -40
1 -84 6 -313 42 -409 52 -560 59 -658 31 -1298 -94 -1924 -376 -679 -306
-1133 -640 -1582 -1163 -297 -347 -569 -830 -713 -1264 -88 -268 -161 -610
-181 -846 -7 -81 -9 -87 -55 -147 -138 -180 -185 -411 -119 -588 29 -78 98
-181 156 -235 45 -42 47 -45 69 -154 75 -361 198 -732 330 -995 14 -27 25 -51
25 -54 0 -2 -28 -23 -63 -46 -88 -57 -121 -94 -113 -123 10 -34 221 -203 288
-231 9 -4 -4 -21 -38 -54 -74 -69 -144 -160 -144 -187 0 -13 8 -30 18 -38 42
-36 322 -178 351 -178 6 0 11 -4 11 -10 0 -5 -4 -10 -9 -10 -17 0 -61 -53 -61
-74 0 -34 203 -215 325 -290 16 -10 31 -20 33 -21 2 -2 -12 -50 -31 -107 -47
-140 -69 -245 -71 -331 l-1 -72 98 2 c110 2 301 28 577 79 102 18 195 34 206
34 12 0 50 -19 85 -42 511 -340 1177 -589 1794 -673 533 -71 1147 -32 1640
106 448 126 814 287 1240 547 l100 61 100 -20 c328 -64 702 -113 743 -98 19 7
22 16 22 67 0 70 -37 243 -78 365 l-30 88 97 67 c117 81 271 217 271 239 0 9
-17 32 -38 52 l-38 37 85 27 c115 37 325 143 341 172 17 32 -2 65 -101 171
l-81 87 34 20 c122 73 268 197 268 226 0 19 -64 83 -114 116 -32 21 -31 29 19
138 l35 78 39 -21 c22 -11 43 -20 46 -20 13 0 3 47 -21 90 l-26 48 35 88 c118
298 214 685 253 1024 26 217 26 714 1 920 -38 307 -122 660 -219 920 -55 145
-171 395 -235 502 -29 50 -53 92 -53 93 0 2 -28 50 -63 107 -78 129 -92 156
-84 164 3 4 17 -7 31 -22 32 -37 33 -20 1 58 -14 34 -25 63 -25 66 0 2 14 -8
31 -22 17 -14 34 -26 39 -26 12 0 22 65 14 97 -11 48 12 13 36 -55 13 -34 27
-65 31 -68 5 -3 9 23 9 58 1 78 10 64 40 -60 12 -51 25 -90 29 -87 3 4 8 32
11 63 l5 57 18 -87 c9 -48 23 -99 29 -115 12 -27 13 -26 16 30 2 31 6 57 10
57 4 0 29 -42 55 -92 l48 -93 -6 101 c-11 208 -80 389 -203 528 -86 97 -116
135 -132 166 -7 14 9 2 36 -27 61 -64 83 -70 54 -13 -11 22 -17 40 -13 40 4 0
33 -26 65 -57 61 -61 69 -57 43 17 -8 24 -14 45 -12 46 2 2 22 -23 46 -56 23
-33 46 -60 51 -60 5 0 -1 24 -14 54 -13 30 -31 79 -40 109 -15 53 -65 117 -91
117 -6 0 -30 16 -53 36 -23 19 -42 33 -42 30 0 -4 14 -32 31 -64 29 -53 29
-55 5 -27 -25 29 -25 29 -20 5 4 -17 -7 -6 -31 30 l-37 55 5 -45 c3 -25 3 -37
0 -27 -2 9 -9 15 -14 12 -5 -4 -6 2 -2 12 3 10 3 15 -2 11 -8 -7 -55 40 -55
55 0 4 -5 7 -11 7 -8 0 -9 -11 -5 -31 4 -24 3 -30 -7 -26 -8 3 -20 2 -27 -3
-9 -6 -7 -13 9 -29 11 -11 21 -31 22 -43 0 -13 2 -31 4 -41 2 -9 -1 -15 -6
-11 -5 3 -7 10 -4 15 4 5 -1 12 -9 15 -9 3 -36 33 -61 66 -47 63 -55 64 -30 5
18 -43 19 -50 5 -42 -5 3 -10 1 -10 -4 0 -6 -5 -11 -11 -11 -5 0 -7 5 -4 10 3
6 0 10 -7 10 -8 0 -27 22 -43 50 -17 27 -33 50 -37 50 -3 0 3 -23 14 -52 15
-39 16 -49 5 -39 -12 9 -16 9 -20 -1 -3 -8 -21 4 -51 35 -49 51 -54 50 -31 -6
21 -50 5 -53 -40 -7 -45 46 -58 50 -45 14 18 -45 -1 -50 -37 -8 -35 41 -43 33
-17 -17 23 -45 12 -45 -35 0 l-41 40 22 15 c36 25 199 94 263 111 165 43 376
24 550 -52 122 -53 204 -118 303 -242 39 -48 29 -55 -14 -10 -33 36 -149 129
-159 129 -3 0 -3 -9 0 -20 10 -32 -9 -23 -50 25 -22 24 -41 43 -43 41 -3 -3
30 -84 45 -108 2 -4 -4 -5 -14 -1 -16 6 -17 5 -3 -12 8 -10 10 -16 4 -12 -6 3
-37 40 -70 81 -51 66 -74 88 -74 71 0 -2 12 -21 26 -42 14 -21 44 -76 66 -123
38 -79 116 -196 125 -186 2 2 -1 25 -8 50 -6 26 -9 49 -7 51 3 3 26 -24 52
-59 42 -57 76 -95 76 -85 0 12 -31 101 -49 143 -12 27 -19 51 -16 54 2 3 8 -4
11 -14 14 -37 92 -150 128 -184 l37 -35 -15 41 c-8 22 -23 60 -35 84 -11 24
-20 45 -18 46 1 2 36 -31 77 -72 87 -87 98 -80 47 28 -89 189 -242 333 -430
407 -115 44 -211 61 -357 61 -96 0 -100 1 -132 30 -32 30 -32 30 -8 30 14 0
43 -5 65 -10 50 -11 57 -4 25 24 -14 12 -32 30 -40 41 -14 17 -13 18 5 11 38
-14 135 -34 135 -28 -1 4 -19 20 -41 35 -23 16 -39 31 -36 34 3 3 37 -4 76
-16 38 -11 73 -21 77 -21 5 0 -11 19 -36 42 -24 23 -40 43 -34 45 5 2 43 -10
84 -26 41 -16 77 -27 79 -25 3 2 -13 22 -34 44 -22 22 -36 40 -33 40 3 0 36
-14 74 -30 37 -17 69 -28 72 -25 3 3 -12 23 -33 45 l-38 39 59 -24 c32 -12 70
-26 84 -30 l25 -7 -25 26 c-13 15 -40 36 -58 48 -18 11 -31 22 -29 24 2 3 46
-9 96 -26 51 -17 97 -30 103 -28 16 6 -34 59 -96 102 -88 60 -215 106 -328
119 l-97 11 -98 -39 c-116 -45 -214 -96 -266 -137 -20 -16 -41 -26 -47 -23
-10 6 -85 -28 -112 -53 -10 -8 -18 -12 -18 -9 0 4 35 40 78 81 42 41 74 77 70
81 -3 4 -28 -3 -54 -14 -26 -12 -49 -20 -50 -18 -2 2 21 25 51 51 54 47 92 92
83 101 -2 2 -28 -7 -58 -20 l-55 -25 40 32 c58 49 107 102 95 106 -5 2 -35 -8
-66 -22 -32 -15 -59 -24 -61 -22 -2 2 13 17 34 32 49 36 113 96 113 106 0 14
-24 9 -73 -17 -58 -31 -61 -17 -6 27 40 33 102 108 95 116 -6 6 -61 -25 -75
-42 -8 -9 -18 -16 -23 -16 -5 0 5 18 24 39 47 56 73 101 56 101 -29 0 -120
-51 -164 -92 l-47 -43 7 35 7 35 -21 -25 c-11 -14 -32 -51 -47 -82 -29 -62
-43 -73 -43 -33 0 14 -4 25 -8 25 -9 0 -42 -97 -42 -123 0 -22 -17 -22 -22 1
-5 21 -28 -77 -28 -118 0 -17 -3 -30 -8 -30 -4 0 -25 29 -47 65 -38 62 -62 84
-51 48 3 -10 8 -36 11 -58 4 -29 3 -36 -4 -25 -6 8 -11 24 -11 35 0 27 -50
111 -94 160 l-36 40 6 -38 7 -39 -46 49 c-72 77 -135 106 -237 111 -47 2 -96
-1 -110 -6 -24 -10 -24 -11 23 -32 27 -12 65 -31 85 -43 l37 -22 -40 -6 c-39
-5 -39 -6 -15 -16 14 -6 48 -21 75 -34 l50 -24 -50 -5 -49 -5 82 -54 c45 -29
82 -55 82 -56 0 -1 -24 0 -52 3 -49 5 -52 4 -39 -12 8 -10 35 -31 59 -48 26
-18 40 -33 33 -37 -7 -5 4 -22 29 -46 22 -22 40 -43 40 -48 0 -5 -17 -6 -37
-2 l-38 7 43 -44 c55 -58 53 -68 -5 -25 -27 19 -84 54 -128 77 -94 50 -112 65
-72 58 39 -7 33 5 -15 30 l-43 23 40 -5 c22 -3 60 -8 85 -11 l45 -6 -35 31
c-19 17 -66 47 -105 66 -185 91 -409 83 -606 -23 -38 -20 -52 -23 -80 -15
l-34 9 47 23 c26 13 45 28 41 32 -3 5 -11 7 -18 4 -7 -2 -16 -2 -20 2 -3 3 18
18 46 32 66 31 74 50 22 51 l-38 0 37 16 c40 16 42 32 5 34 -15 0 -5 9 33 27
l55 27 -40 6 c-32 4 -36 7 -20 13 11 4 49 22 85 39 l65 32 -44 5 -45 5 53 25
c29 13 55 28 58 34 7 10 -110 3 -139 -9 -13 -5 -18 -2 -18 9 0 9 -2 16 -5 16
-16 0 -128 -63 -143 -80 -25 -30 -35 -24 -17 10 9 17 12 30 7 30 -13 0 -96
-90 -125 -137 -37 -59 -52 -65 -44 -20 3 21 4 37 2 37 -2 0 -18 -25 -35 -55
-25 -43 -32 -67 -32 -106 1 -28 3 -53 5 -56 3 -2 22 26 42 64 63 111 149 214
130 154 -9 -31 11 -26 36 9 22 29 91 68 158 89 50 16 57 14 27 -10 -15 -12
-25 -27 -22 -34 6 -16 -31 -50 -64 -60 -14 -4 -31 -12 -39 -19 -11 -9 -9 -12
10 -17 24 -7 24 -7 -2 -8 -15 -1 -37 -10 -50 -22 l-24 -20 33 4 c17 2 32 1 32
-2 -1 -3 -29 -19 -63 -35 -61 -29 -61 -29 -32 -36 l30 -6 -35 -22 c-19 -12
-39 -23 -45 -25 -5 -2 -10 -16 -10 -32 -1 -17 -10 -33 -21 -39 -24 -14 -34
-28 -28 -38 3 -4 0 -8 -6 -8 -7 0 -9 -7 -6 -17 4 -10 4 -14 0 -11 -7 8 -44
-34 -44 -51 0 -18 -48 -82 -54 -72 -5 8 12 162 30 282 6 37 6 37 -37 44 -62
10 -75 20 -83 57 -5 25 -9 30 -16 18 -11 -18 -9 -20 -51 58 -29 53 -35 59 -39
40 -5 -20 -8 -17 -32 23 -41 70 -129 148 -97 87 8 -16 0 -12 -28 15 -41 39
-56 46 -47 22 4 -11 -7 -8 -37 10 -66 38 -209 69 -209 45z m216 -83 c54 -23
80 -41 105 -73 40 -51 59 -62 52 -31 -4 21 -4 21 17 -3 11 -14 30 -44 40 -66
18 -41 40 -65 40 -45 0 22 18 10 25 -16 3 -15 13 -43 21 -62 12 -28 17 -32 24
-21 12 19 13 14 35 -125 18 -122 17 -236 -2 -243 -7 -2 -13 3 -13 12 0 9 -11
39 -25 68 -14 28 -25 56 -25 62 0 15 -51 86 -59 82 -3 -2 -13 3 -21 12 -13 14
-12 15 2 10 34 -14 26 7 -19 49 -43 40 -45 43 -20 37 41 -10 33 12 -13 36 -25
13 -38 25 -34 32 4 6 3 8 -4 4 -6 -3 -13 -2 -17 4 -4 6 7 10 27 10 31 1 29 3
-34 36 -38 19 -68 36 -68 37 0 2 17 1 38 -1 l37 -4 -35 31 c-19 17 -47 39 -62
48 -16 10 -28 21 -28 26 0 4 4 6 8 3 9 -5 39 11 32 17 -13 10 -126 102 -135
110 -15 13 28 -1 111 -36z m2279 -69 c-22 -23 -43 -45 -46 -48 -3 -3 -20 -27
-39 -55 -32 -50 -57 -75 -71 -75 -4 0 -1 12 7 28 7 15 14 32 14 37 1 18 57 85
101 120 62 49 82 44 34 -7z m-745 -54 c58 -25 137 -91 175 -148 49 -75 62 -85
73 -55 8 21 11 18 30 -31 11 -30 27 -68 36 -85 8 -16 20 -43 27 -60 l11 -30
12 40 12 40 7 -40 c12 -70 9 -105 -8 -99 -8 4 -15 14 -15 24 0 9 -11 26 -25
36 -14 10 -25 25 -25 32 0 13 -14 21 -47 27 -10 2 -18 4 -18 5 0 1 -10 3 -23
6 -16 3 -21 0 -16 -8 5 -10 3 -10 -7 0 -11 11 -12 14 0 21 11 7 11 12 0 30 -8
11 -18 21 -23 21 -4 0 -3 -7 4 -15 28 -33 0 -24 -40 14 l-43 40 34 3 c33 3 32
4 -23 21 -31 9 -60 22 -63 27 -3 6 1 7 9 4 9 -3 23 -3 32 0 15 6 14 10 -7 32
-35 37 -139 119 -190 150 l-44 25 60 -6 c33 -4 76 -13 95 -21z m-1995 -105
c142 -14 342 -44 378 -58 41 -16 32 -24 -19 -17 -34 4 -62 0 -114 -18 l-70
-25 -142 17 c-203 24 -714 23 -883 -1 -538 -79 -864 -171 -1275 -364 -287
-134 -503 -265 -760 -462 -135 -103 -202 -164 -400 -361 -173 -173 -215 -220
-354 -405 -228 -301 -425 -681 -544 -1045 -76 -230 -94 -302 -148 -595 -4 -25
-104 -101 -104 -80 0 51 37 265 71 403 168 701 536 1338 1075 1862 140 136
225 210 360 312 657 497 1456 793 2289 848 143 10 486 4 640 -11z m2665 1
c-14 -10 -27 -17 -29 -14 -6 5 31 33 44 33 6 1 -1 -8 -15 -19z m-2170 -86 c37
-36 4 -30 -38 7 -31 27 -32 30 -11 24 13 -4 35 -18 49 -31z m-1 -60 c6 4 11 3
11 -3 0 -5 3 -17 7 -27 4 -12 3 -15 -5 -10 -7 4 -12 1 -12 -7 0 -8 -11 -14
-29 -14 -18 0 -27 5 -25 12 5 13 -19 24 -114 53 -34 10 -59 21 -56 25 12 11
113 8 136 -4 19 -10 20 -9 14 17 -6 28 -6 28 28 -10 19 -22 38 -36 45 -32z
m1249 10 c42 -8 80 -19 84 -22 4 -4 -49 -6 -118 -5 -68 0 -122 -2 -119 -7 2
-4 18 -13 34 -20 16 -6 32 -18 35 -25 4 -10 -5 -10 -47 1 -29 8 -60 14 -69 14
-26 0 -22 -17 5 -24 17 -5 19 -8 8 -15 -11 -7 -10 -10 5 -15 18 -5 0 -3 -76
10 l-35 6 35 -22 c32 -21 33 -23 15 -36 -23 -17 -39 -18 -29 -3 4 7 0 9 -14 5
-12 -4 -34 0 -52 9 -49 25 -55 13 -11 -20 39 -30 46 -49 13 -39 -9 3 -6 -2 8
-10 39 -24 13 -19 -51 10 -33 15 -62 24 -66 21 -8 -8 16 -37 31 -37 15 -1 83
-53 84 -65 0 -5 9 -12 19 -16 38 -16 -14 -9 -58 7 -57 20 -151 45 -155 41 -2
-2 23 -19 55 -37 33 -19 57 -38 55 -41 -2 -4 8 -10 22 -13 15 -4 24 -9 22 -12
-3 -2 -53 12 -112 32 -59 20 -109 34 -112 32 -2 -3 19 -19 46 -37 28 -18 50
-33 50 -35 0 -9 -72 4 -98 18 -51 27 -62 13 -14 -19 57 -38 53 -49 -9 -24 -59
23 -90 20 -43 -4 33 -17 63 -47 46 -47 -5 0 -29 7 -52 15 -60 21 -69 18 -37
-10 l28 -25 -46 6 c-49 7 -63 -9 -22 -27 20 -9 20 -9 -6 -4 -23 5 -29 1 -37
-20 -5 -14 -14 -25 -20 -25 -16 0 24 95 77 184 68 114 186 230 290 284 148 78
285 98 441 66z m-1713 -47 l80 -12 -82 -13 c-46 -7 -108 -22 -139 -32 -49 -17
-85 -20 -263 -20 -227 0 -370 -10 -596 -41 -144 -20 -406 -75 -490 -104 -22
-7 -105 -34 -185 -61 -368 -120 -788 -343 -1105 -586 -119 -91 -229 -188 -371
-325 -169 -163 -473 -560 -566 -738 -32 -62 -33 -63 -78 -67 -25 -3 -49 -3
-53 0 -11 5 94 200 160 297 30 44 78 114 107 156 60 88 236 306 316 393 174
187 571 491 835 639 574 322 1074 474 1745 531 93 8 608 -5 685 -17z m2121
-41 c10 -8 16 -17 13 -20 -3 -4 -17 2 -30 13 -27 23 -13 28 17 7z m1130 3 c87
-16 155 -36 193 -60 39 -24 35 -37 -6 -16 -30 16 -170 47 -209 47 -30 0 -31
-13 -1 -29 13 -7 15 -10 4 -6 -10 3 -37 8 -60 11 -40 6 -41 5 -22 -10 20 -15
19 -15 -7 -16 -14 0 -28 -5 -30 -12 -3 -9 -12 -9 -38 0 -42 15 -52 6 -21 -19
16 -13 19 -19 8 -19 -20 0 -28 -25 -14 -39 7 -7 -8 -3 -33 8 -25 11 -56 20
-70 20 -25 0 -25 0 5 -16 23 -13 26 -18 13 -21 -10 -2 -15 -9 -11 -18 6 -17 5
-17 -47 1 -50 18 -62 13 -30 -13 l22 -18 -46 -19 c-43 -18 -60 -35 -35 -35 5
0 27 -11 47 -25 36 -25 35 -31 -3 -16 -11 5 -25 5 -30 0 -6 -4 -30 -3 -54 2
-24 5 -45 8 -47 6 -3 -2 22 -21 53 -41 32 -21 49 -34 38 -30 -11 4 -36 12 -55
19 -21 8 -37 9 -41 4 -3 -6 -16 -6 -32 0 -29 11 -47 -2 -23 -16 10 -5 13 -17
10 -30 -5 -18 -11 -21 -38 -17 l-31 5 23 -20 c30 -26 21 -42 -18 -31 -31 9
-46 -1 -37 -24 4 -10 -2 -13 -19 -12 -30 1 -30 3 0 70 46 103 141 224 234 295
36 28 146 86 262 138 32 15 121 16 196 2z m-3002 -15 c165 -42 369 -195 445
-335 l24 -44 -36 33 c-31 30 -37 33 -58 21 -24 -12 -24 -12 -5 10 18 20 15 26
-9 21 -58 -12 -60 -12 -42 8 27 30 20 34 -24 12 -49 -26 -58 -22 -24 10 41 39
28 42 -37 9 l-63 -31 39 41 c47 48 41 64 -11 29 -21 -13 -46 -27 -55 -31 -28
-10 -22 18 10 45 49 41 47 53 -3 23 -27 -15 -62 -30 -79 -32 l-30 -3 37 38
c44 45 48 61 9 32 -15 -11 -41 -23 -57 -26 -17 -3 -40 -15 -52 -26 -13 -12
-26 -18 -30 -14 -4 3 18 31 47 61 60 61 59 67 -4 30 -24 -14 -46 -22 -51 -17
-4 4 -5 2 -2 -4 10 -18 -16 -24 -37 -9 -16 12 -15 15 18 42 53 42 44 49 -20
14 -31 -17 -61 -28 -67 -24 -6 3 -7 1 -3 -5 4 -7 1 -12 -8 -12 -24 0 -19 13
14 45 38 36 32 42 -17 17 -21 -11 -49 -23 -63 -27 l-25 -7 29 31 c36 38 29 49
-16 26 -18 -9 -44 -21 -58 -26 l-25 -9 25 20 25 20 -31 0 c-17 0 -51 -7 -74
-15 -53 -19 -73 -19 -40 0 65 37 214 73 309 74 35 1 91 -6 125 -15z m1462
-129 c16 -8 40 -15 53 -15 20 0 21 2 11 15 -20 24 13 19 35 -5 20 -22 62 -23
58 -2 -5 21 4 13 26 -24 38 -64 27 -69 -99 -38 -52 13 -118 23 -147 24 -28 0
-55 4 -58 10 -4 6 5 8 22 5 30 -6 68 12 46 22 -7 2 -13 9 -13 14 0 14 34 11
66 -6z m254 -61 c16 -29 18 -39 9 -48 -9 -8 -10 -7 -4 4 8 13 6 13 -8 1 -9 -7
-25 -10 -34 -7 -14 6 -15 9 -4 16 8 4 14 22 13 39 0 17 1 31 3 31 2 0 13 -16
25 -36z m88 -81 l11 -32 -35 22 c-33 22 -43 37 -24 37 6 0 10 10 10 22 0 22 0
22 13 3 8 -11 19 -34 25 -52z m592 54 c0 -2 -10 -12 -22 -23 l-23 -19 19 23
c18 21 26 27 26 19z m-783 -47 c191 -74 364 -212 442 -353 27 -49 27 -56 -3
-28 -23 21 -25 22 -61 7 -51 -22 -55 -20 -20 9 38 31 26 42 -25 21 -22 -9 -40
-13 -40 -10 0 3 12 21 26 40 15 19 23 34 20 34 -4 0 -34 -14 -69 -31 l-62 -32
39 47 c21 26 36 49 33 52 -2 3 -21 -5 -42 -17 -30 -18 -38 -20 -45 -8 -6 8 -4
20 6 30 29 32 12 29 -63 -10 l-78 -40 43 40 c24 23 41 43 39 45 -2 3 -27 -11
-56 -30 -28 -19 -48 -30 -44 -23 7 12 12 47 7 47 -2 0 -13 -10 -25 -22 -34
-35 -8 6 29 47 44 47 36 54 -14 12 -68 -58 -103 -78 -127 -75 -19 3 -14 11 47
71 38 37 67 69 65 71 -2 2 -38 -16 -79 -40 -46 -28 -83 -43 -95 -40 -10 3 -28
-2 -39 -12 -19 -17 -19 -17 -1 11 17 27 30 34 38 20 2 -5 2 -2 1 5 -2 7 10 24
26 39 37 32 33 39 -13 22 -31 -11 -37 -10 -52 5 -16 16 -16 18 0 36 10 11 25
20 32 20 26 0 7 24 -37 47 -24 13 -46 26 -49 29 -3 4 32 4 79 2 64 -4 106 -13
167 -38z m-1982 19 c-5 -6 9 -9 39 -8 31 2 52 -2 62 -13 13 -13 22 -13 54 -4
21 6 42 15 46 19 16 16 26 6 11 -11 -10 -10 -17 -23 -17 -28 0 -6 -21 -15 -46
-22 -202 -54 -391 -223 -491 -438 -65 -142 -63 -148 22 -64 41 41 75 72 75 70
0 -3 -11 -35 -24 -72 -13 -38 -20 -68 -15 -68 5 0 32 29 60 65 29 36 54 63 56
61 2 -1 -3 -22 -11 -44 -9 -23 -11 -42 -6 -42 4 0 31 26 60 58 l51 57 -7 -39
-7 -40 61 53 c33 30 65 65 71 79 19 41 21 20 3 -30 -9 -26 -13 -50 -9 -54 4
-4 32 17 62 46 80 79 72 54 -37 -109 -108 -161 -158 -318 -165 -521 -3 -69 -3
-123 0 -120 2 3 17 37 32 75 42 110 45 116 43 75 -2 -70 3 -76 22 -25 10 28
19 60 19 73 2 40 21 13 21 -29 0 -62 15 -46 35 39 25 108 28 113 35 60 3 -26
9 -50 12 -53 4 -4 20 35 36 87 32 96 39 99 44 13 l3 -50 30 85 30 85 5 -45 5
-45 28 53 c15 28 31 52 36 52 5 0 14 14 20 30 5 17 13 30 16 30 8 0 -6 -51
-20 -75 -7 -11 -15 -35 -19 -54 -5 -28 -3 -32 10 -27 11 4 15 2 11 -8 -3 -8
-8 -47 -11 -87 -6 -70 -5 -72 9 -44 l14 30 1 -40 c0 -43 36 -184 50 -199 4 -4
11 26 15 68 4 42 11 76 16 76 5 0 9 -9 9 -20 0 -11 4 -20 9 -20 5 0 13 37 19
83 7 59 12 76 17 60 12 -36 23 -27 30 25 9 68 13 81 14 50 2 -44 21 -33 21 11
0 22 5 43 10 46 6 3 10 -3 10 -15 0 -37 16 -13 29 44 7 31 16 58 22 61 9 6 7
-14 -11 -105 -13 -65 -22 -238 -14 -251 4 -8 12 -3 20 12 12 22 13 15 14 -58
0 -84 8 -101 28 -60 l11 22 0 -22 c2 -43 23 -125 30 -114 5 7 15 -3 27 -26 22
-43 68 -101 97 -122 19 -14 20 -13 13 20 -3 18 -15 51 -26 72 -11 21 -20 47
-20 59 0 20 1 20 18 5 32 -29 32 -19 1 50 -36 80 -34 101 5 43 44 -67 45 -41
1 75 -6 16 -1 14 23 -9 18 -16 34 -28 36 -25 2 2 -9 35 -25 73 -16 39 -27 72
-24 74 2 2 17 -11 34 -30 39 -42 39 -25 1 64 -17 39 -29 73 -27 75 3 2 19 -13
36 -33 18 -20 35 -34 38 -31 7 8 -14 71 -44 130 -28 57 -17 62 17 7 14 -22 28
-40 32 -40 15 0 7 65 -12 110 l-20 45 23 -27 c33 -40 40 -35 33 25 -12 103 12
21 48 -163 39 -196 67 -317 85 -363 6 -16 18 -69 26 -118 8 -49 17 -95 21
-101 8 -12 10 -25 38 -173 8 -44 22 -100 30 -125 27 -74 27 -74 -147 -65 -138
6 -473 7 -1969 2 -274 -1 -498 1 -498 4 0 4 12 32 26 63 38 84 23 92 -19 10
-36 -71 -73 -111 -128 -140 -39 -20 -37 -12 12 41 44 48 44 57 -1 25 -15 -11
-31 -16 -35 -12 -5 4 -5 2 -1 -5 3 -6 1 -15 -5 -19 -9 -5 -11 8 -7 52 3 32 2
82 -2 109 l-7 50 -2 -46 c-3 -101 -12 -137 -37 -142 -41 -7 -42 56 -3 135 11
21 19 41 18 45 0 4 -15 -22 -33 -59 l-33 -66 -34 39 c-18 21 -40 41 -49 44 -8
4 -1 -9 16 -27 64 -70 76 -118 55 -223 l-9 -40 -1 36 c-2 61 -53 210 -67 196
-3 -3 1 -18 10 -34 15 -30 37 -159 28 -168 -8 -7 -63 85 -90 150 -13 32 -25
84 -27 113 -2 30 -8 59 -14 65 -14 14 -4 -95 15 -155 8 -26 14 -49 14 -51 0
-5 -36 0 -101 14 -26 6 -72 14 -103 18 -54 7 -56 7 -56 -16 0 -16 -6 -23 -19
-23 -11 0 -23 5 -27 11 -7 12 -134 5 -209 -11 -22 -5 -40 -8 -41 -7 -2 1 6 38
17 82 22 94 25 139 7 132 -7 -2 -12 -9 -11 -15 5 -21 -26 -161 -41 -189 -22
-39 -76 -100 -76 -85 0 6 12 41 26 77 15 36 24 68 22 70 -2 3 -20 -27 -38 -65
-19 -39 -37 -70 -42 -70 -4 0 -8 24 -8 53 0 55 29 112 74 148 50 41 68 59 57
59 -7 0 -41 -28 -76 -63 l-62 -63 -28 63 c-15 35 -32 66 -37 69 -5 3 -2 -11 7
-33 38 -87 46 -172 21 -206 -13 -16 -16 -14 -32 30 -13 31 -19 71 -18 113 1
42 -1 58 -6 45 -5 -11 -9 -35 -9 -53 -1 -30 -3 -32 -22 -22 l-21 12 20 -29
c21 -29 38 -73 28 -73 -3 0 -15 10 -28 23 -13 13 -52 43 -88 67 -36 24 -66 47
-68 52 -6 13 -22 9 -22 -6 0 -7 13 -40 30 -72 16 -32 30 -60 30 -61 0 -11 -78
1 -126 18 -110 41 -272 27 -306 -25 -5 -7 -8 -7 -8 0 0 5 14 32 32 60 17 27
42 70 55 97 13 26 28 47 33 47 6 0 10 4 10 10 0 5 -22 12 -49 16 -36 5 -48 10
-44 20 3 8 1 14 -5 14 -13 0 -108 -39 -159 -66 l-43 -22 0 28 c0 37 -21 132
-32 144 -4 6 -18 0 -33 -14 l-25 -23 17 42 c20 52 79 106 130 120 98 28 212
-2 267 -70 15 -19 23 -24 17 -12 -16 31 -14 38 6 22 15 -12 15 -10 -2 16 -35
55 -101 95 -188 115 -29 6 -57 13 -64 15 -19 6 7 73 43 112 27 28 38 33 79 33
46 0 47 1 32 18 -10 10 -17 27 -17 36 0 60 107 134 174 122 30 -6 37 -3 58 23
37 47 103 74 178 75 70 0 118 -18 180 -71 35 -29 80 -113 80 -149 0 -19 8 -22
83 -28 111 -10 111 -10 287 -8 85 1 161 6 167 10 7 4 24 39 37 76 14 38 34 78
45 90 18 20 71 121 71 136 0 4 -12 7 -27 7 -43 0 -394 24 -429 29 -19 3 -31
10 -31 20 0 13 33 15 274 13 250 -2 275 -1 293 16 11 10 22 26 25 36 3 10 14
20 23 23 9 3 30 18 46 33 16 15 45 29 65 33 l36 6 -38 20 -38 20 58 49 c31 28
82 67 113 89 30 21 57 41 60 45 32 40 311 190 440 236 41 15 118 42 170 60
189 67 314 90 585 110 94 7 171 13 173 14 2 0 0 -4 -3 -10z m1773 -35 c25 -11
32 -18 22 -21 -8 -3 -22 -10 -30 -16 -12 -9 -13 -9 -3 3 10 11 8 17 -15 32
-34 22 -23 23 26 2z m452 -27 c0 -5 -4 -5 -10 -2 -5 3 -10 14 -10 23 0 15 2
15 10 2 5 -8 10 -19 10 -23z m-1764 -28 c71 -12 212 -57 219 -70 4 -5 -7 -9
-22 -9 -16 0 -34 -5 -41 -12 -9 -9 -12 -8 -12 5 0 23 -17 21 -32 -3 -18 -28
-28 -25 -28 8 l-1 27 -28 -34 c-23 -28 -29 -31 -34 -17 -4 9 -4 23 -1 31 14
34 -14 12 -31 -25 -20 -45 -34 -38 -35 15 0 27 -4 24 -35 -34 -19 -35 -37 -66
-41 -70 -4 -3 -4 22 0 57 4 34 5 62 3 62 -3 0 -17 -26 -33 -57 -15 -32 -29
-52 -32 -45 -2 7 -9 9 -14 5 -8 -4 -9 8 -5 40 4 26 5 47 2 47 -2 0 -16 -24
-30 -52 -33 -67 -49 -84 -40 -43 7 29 7 29 -10 10 -16 -19 -16 -19 -11 11 8
47 -4 48 -29 3 -22 -41 -36 -51 -44 -28 -2 6 1 9 6 6 5 -3 8 7 5 24 -3 17 -8
27 -13 22 -19 -19 -78 -125 -95 -170 -9 -26 -21 -52 -26 -58 -16 -17 2 65 28
130 13 32 21 61 19 63 -4 5 -62 -84 -89 -135 -9 -18 -19 -33 -21 -33 -9 0 4
56 20 86 8 16 15 35 15 42 0 28 -21 7 -65 -65 -26 -43 -44 -67 -40 -53 4 14
16 39 26 56 34 56 20 50 -57 -26 -42 -41 -73 -68 -69 -60 71 131 219 254 375
311 132 48 230 59 346 38z m-1924 -45 c30 -15 55 -15 135 1 19 4 44 2 61 -6
l30 -13 -34 -18 c-19 -10 -40 -18 -47 -18 -7 0 -20 -9 -30 -20 -11 -13 -29
-20 -52 -20 -38 0 -111 32 -117 51 -2 7 -24 15 -49 19 l-44 7 35 16 c45 21 73
21 112 1z m4586 -45 c33 -1 35 -2 12 -9 -44 -14 -80 -12 -80 6 0 11 5 14 16
10 9 -3 32 -6 52 -7z m-2314 -68 c50 -21 62 -37 21 -27 -21 5 -25 3 -26 -16
l0 -23 -9 23 c-16 38 -30 24 -31 -30 -1 -29 -4 -42 -6 -28 -7 41 -25 80 -34
74 -5 -3 -9 -40 -10 -82 -1 -81 -1 -81 -31 28 l-12 45 -6 -93 c-10 -135 -18
-136 -40 -3 -13 80 -30 81 -30 0 0 -30 -6 -53 -19 -68 -18 -21 -18 -21 -25 39
-4 33 -11 60 -15 60 -5 0 -11 -30 -15 -67 -15 -151 -18 -169 -28 -143 -5 14
-13 56 -18 94 -12 100 -27 104 -34 10 -4 -44 -10 -95 -13 -114 -6 -32 -7 -33
-11 -10 l-5 25 -8 -25 c-5 -20 -7 -14 -9 25 0 28 -4 68 -8 90 l-8 40 -12 -59
c-7 -33 -12 -71 -13 -85 l-1 -26 -8 25 c-5 17 -8 19 -9 8 -1 -10 -5 -18 -10
-18 -6 0 -12 -17 -14 -37 -3 -36 -4 -35 -5 8 -2 59 -12 109 -22 109 -4 0 -11
-29 -15 -65 -3 -36 -10 -65 -15 -65 -5 0 -13 -12 -19 -27 -11 -28 -11 -28 -6
5 3 20 1 31 -5 27 -6 -4 -10 8 -10 27 -1 49 -15 18 -35 -77 -20 -93 -24 -102
-36 -84 -6 10 -9 7 -10 -11 -1 -14 -5 -5 -8 19 -9 68 -27 61 -41 -14 -7 -37
-19 -85 -26 -108 -14 -42 -14 -41 -8 31 4 44 2 72 -4 72 -5 0 -27 -39 -48 -87
-52 -120 -58 -123 -28 -12 73 267 255 488 493 597 119 55 253 64 345 23z
m1851 -21 c3 -5 1 -10 -4 -10 -6 0 -11 5 -11 10 0 6 2 10 4 10 3 0 8 -4 11
-10z m-1519 -31 c3 -5 -6 -9 -20 -9 -42 0 -38 -17 5 -24 23 -4 55 -14 73 -23
l31 -17 -33 -7 c-39 -8 -54 -19 -26 -19 24 0 70 -25 115 -63 24 -20 28 -27 14
-24 -97 25 -112 15 -35 -23 28 -13 60 -35 73 -49 22 -25 21 -25 -28 -5 -29 12
-15 -13 26 -45 46 -37 46 -50 0 -27 -41 22 -58 21 -39 -1 8 -10 19 -25 23 -33
8 -13 7 -13 -11 0 -10 8 -27 23 -36 34 -27 33 -31 12 -7 -35 32 -63 -2 -32
-42 38 -17 30 -33 52 -36 50 -2 -3 1 -26 8 -51 16 -65 6 -67 -20 -4 -30 74
-52 117 -47 93 3 -11 8 -45 11 -75 6 -49 5 -53 -8 -40 -9 8 -24 44 -35 80
l-20 65 -1 -60 c-2 -79 -18 -55 -27 40 -6 53 -9 64 -15 45 -4 -14 -8 -41 -8
-60 -2 -52 -20 -17 -22 40 0 34 -2 40 -9 25 -6 -15 -9 -7 -10 30 l-1 50 -19
-40 c-17 -36 -19 -37 -14 -10 21 110 49 160 96 173 33 9 83 -1 94 -19z m-973
1 c3 -11 1 -18 -4 -14 -5 3 -9 12 -9 20 0 20 7 17 13 -6z m-83 -60 c0 -5 -4
-10 -10 -10 -5 0 -10 5 -10 10 0 6 5 10 10 10 6 0 10 -4 10 -10z m2710 -25 c0
-8 -7 -15 -16 -15 -14 0 -14 3 -4 15 7 8 14 15 16 15 2 0 4 -7 4 -15z m-639
-65 c78 -14 161 -43 167 -58 2 -7 0 -23 -6 -35 -10 -20 -11 -20 -11 11 -1 37
-31 47 -31 10 0 -13 -5 -30 -10 -38 -8 -12 -10 -9 -10 14 0 20 -4 27 -14 23
-9 -4 -17 1 -19 11 -4 13 -5 13 -6 -3 0 -12 -10 -39 -21 -60 -11 -22 -18 -46
-15 -53 3 -7 0 -10 -6 -6 -6 3 -8 22 -4 48 4 30 3 37 -4 26 -9 -12 -11 -11
-11 8 0 13 -4 20 -10 17 -5 -3 -10 -19 -10 -36 0 -16 -5 -29 -11 -29 -5 0 -8
-4 -4 -9 6 -11 -15 -61 -26 -61 -4 0 -10 -8 -12 -17 -3 -10 -6 23 -7 72 -2 99
-3 98 -45 -38 -15 -48 -31 -85 -36 -81 -5 3 -9 -5 -9 -17 0 -12 -2 -20 -5 -17
-3 2 -1 47 4 99 5 52 6 100 2 107 -4 7 -18 -28 -31 -80 -14 -50 -33 -101 -43
-112 -17 -20 -18 -18 -11 84 3 58 3 102 0 99 -4 -4 -16 -29 -26 -55 -15 -39
-19 -44 -20 -24 -1 23 -2 23 -10 5 -5 -11 -9 -15 -9 -10 -1 6 -6 3 -12 -5 -8
-11 -9 -2 -5 35 7 63 -4 46 -39 -62 -26 -81 -55 -127 -42 -67 16 71 20 124 8
124 -6 0 -11 -8 -11 -18 0 -10 -10 -29 -22 -42 -13 -14 -21 -26 -19 -27 5 -5
-30 -183 -37 -183 -2 0 -2 19 2 43 4 23 9 78 11 122 4 76 4 79 -10 53 -9 -16
-19 -28 -24 -28 -5 0 -11 -21 -15 -47 -3 -27 -11 -55 -17 -63 -7 -11 -8 -4 -4
25 5 37 5 38 -9 20 -19 -25 -19 -21 -1 39 8 27 13 51 11 54 -3 2 -19 -23 -35
-57 -17 -34 -34 -61 -37 -61 -3 0 -2 5 2 12 5 7 2 9 -8 5 -12 -4 -15 0 -11 16
4 21 3 21 -19 -4 -13 -14 -40 -45 -61 -70 l-38 -44 30 61 c37 74 142 189 223
244 166 110 353 158 509 130z m-493 -33 c13 -13 14 -19 4 -29 -10 -10 -19 -6
-44 19 l-32 32 28 -3 c15 -1 35 -10 44 -19z m1204 -7 c153 -57 291 -238 348
-455 13 -49 23 -122 26 -190 l4 -110 -18 62 c-9 34 -20 64 -23 68 -4 3 -10
-18 -15 -47 l-8 -53 -3 40 c-11 149 -24 179 -38 88 -10 -66 -23 -32 -25 67 -1
76 -6 76 -28 0 -9 -31 -10 -26 -11 43 -1 80 -13 95 -25 32 -5 -23 -11 -33 -18
-29 -7 5 -9 1 -5 -9 4 -10 2 -17 -4 -17 -8 0 -9 24 -5 78 6 70 5 75 -9 58 -15
-20 -15 -20 -15 0 -1 14 -6 10 -21 -16 l-19 -35 5 80 c3 46 2 72 -3 61 -8 -18
-9 -18 -15 -3 -3 9 -13 17 -22 17 -11 0 -15 10 -15 37 l0 38 -27 -39 c-20 -28
-29 -34 -31 -22 -2 9 -8 14 -13 11 -5 -4 -9 15 -10 42 0 40 -2 44 -10 25 -12
-32 -29 -18 -29 23 0 39 -14 53 -29 28 -9 -15 -10 -12 -11 16 0 34 0 35 -18
15 -11 -11 -22 -26 -25 -34 -4 -8 -4 11 -1 43 3 31 3 57 0 57 -3 0 -15 -17
-26 -37 -19 -35 -20 -28 -4 28 5 18 3 20 -18 14 -12 -4 -34 -14 -46 -22 -27
-17 -40 -12 -18 6 72 60 185 76 278 41z m-5111 -120 c48 -32 84 -37 136 -18
30 11 39 10 79 -11 51 -28 58 -46 13 -37 -32 6 -51 -8 -92 -68 -16 -23 -25
-26 -77 -26 -58 0 -60 1 -109 51 l-51 51 -55 -4 c-31 -3 -58 -1 -60 3 -5 8 75
62 115 78 40 16 54 13 101 -19z m2483 -134 c-3 -15 -8 -25 -11 -23 -2 3 -1 17
3 31 3 15 8 25 11 23 2 -3 1 -17 -3 -31z m2533 -8 c-3 -8 -6 -5 -6 6 -1 11 2
17 5 13 3 -3 4 -12 1 -19z m-1556 -52 c1 5 1 12 0 17 -2 12 13 7 37 -12 14
-12 22 -30 22 -50 0 -16 5 -33 10 -36 6 -3 10 3 10 14 0 12 4 21 9 21 12 0 4
-68 -19 -160 -10 -41 -22 -97 -26 -125 l-7 -50 -17 65 c-10 36 -23 78 -29 93
-6 16 -11 41 -11 56 0 16 -8 55 -19 87 -10 33 -21 74 -24 92 l-7 33 35 -27
c19 -14 36 -22 36 -18z m1089 -193 c0 -17 5 -35 10 -38 11 -7 14 -58 3 -68 -3
-4 -14 0 -23 8 -15 14 -18 14 -23 2 -3 -9 1 -14 11 -13 26 2 27 -55 3 -110
-12 -26 -21 -65 -21 -88 -1 -36 -27 -118 -29 -90 -1 8 -35 14 -93 18 -51 4
-110 9 -130 12 -32 5 -38 3 -39 -13 -1 -44 -18 25 -18 77 0 39 3 49 9 35 4
-11 14 -33 21 -50 l12 -30 7 30 c4 17 9 57 10 90 l2 60 17 -50 c10 -27 22 -50
27 -50 11 0 23 110 16 144 -3 15 -1 22 6 17 5 -3 13 -24 17 -46 7 -44 29 -54
39 -17 3 12 6 65 7 117 1 98 8 89 24 -32 3 -27 11 -48 16 -48 20 0 31 57 26
145 -4 86 -4 88 8 45 7 -25 16 -62 20 -84 5 -29 9 -36 18 -27 13 13 16 114 5
181 -6 39 -4 35 17 -25 13 -38 24 -84 25 -102z m27 145 c-3 -8 -6 -5 -6 6 -1
11 2 17 5 13 3 -3 4 -12 1 -19z m-421 -45 c-8 -16 -18 -37 -22 -48 -7 -19 -8
-19 -11 2 -3 12 5 32 18 47 29 33 34 33 15 -1z m1478 -76 c14 -26 26 -55 26
-65 -1 -23 -69 88 -70 113 0 24 10 13 44 -48z m-1748 -37 c8 0 14 6 14 13 0 6
11 13 25 13 21 2 25 -3 25 -26 0 -16 7 -35 15 -44 8 -8 15 -28 15 -45 0 -61
28 -25 31 39 l1 25 8 -25 c4 -14 8 -44 9 -67 1 -23 5 -43 10 -45 6 -2 6 -21 1
-48 -5 -25 -9 -87 -10 -138 0 -74 4 -104 21 -143 12 -27 27 -48 33 -46 6 2 12
34 14 75 l3 72 32 0 c18 0 38 -5 45 -12 8 -8 15 -8 27 2 12 10 45 11 143 6 69
-4 128 -9 130 -11 2 -2 -6 -52 -18 -112 -13 -59 -26 -126 -30 -148 l-7 -40 -2
41 c-1 28 -6 44 -17 48 -9 3 -158 5 -332 5 -174 -1 -301 -5 -282 -9 l35 -7
-38 -2 c-37 -1 -37 -1 -24 -28 7 -16 12 -35 10 -43 -3 -11 5 -16 24 -18 15 -1
29 -7 31 -12 2 -6 16 -7 30 -4 15 3 1 -8 -32 -25 -32 -17 -76 -47 -97 -66 -22
-19 -43 -35 -49 -35 -10 0 -26 53 -34 110 -6 43 -30 140 -50 200 -8 25 -19 72
-24 105 -5 33 -19 87 -32 120 -29 79 -23 123 29 215 l43 75 -6 -52 c-5 -52 7
-72 21 -35 4 9 14 30 24 45 17 29 17 28 12 -37 -6 -73 4 -85 29 -33 16 31 16
30 11 -55 -4 -58 -2 -88 4 -88 6 0 14 11 17 25 11 42 26 28 26 -25 0 -38 -4
-50 -15 -50 -22 0 -19 -8 15 -41 16 -16 27 -36 24 -43 -6 -14 13 -32 23 -23 3
3 6 37 7 74 4 101 5 113 15 113 5 0 12 -8 14 -17 3 -10 5 1 6 25 0 23 6 42 11
42 15 0 12 49 -5 106 -19 64 -19 66 9 21 29 -46 40 -34 26 25 -13 48 -22 103
-14 76 3 -10 12 -18 20 -18z m-3806 10 c0 -5 -5 -10 -11 -10 -5 0 -7 5 -4 10
3 6 8 10 11 10 2 0 4 -4 4 -10z m4725 -75 c-8 -22 -14 -51 -14 -65 0 -24 2
-23 40 18 22 23 42 42 45 42 2 0 -4 -17 -15 -37 -22 -45 -35 -99 -26 -113 7
-11 43 28 64 68 7 13 15 21 18 19 3 -3 -10 -42 -28 -86 -18 -44 -30 -83 -26
-87 13 -13 39 7 69 56 17 28 33 49 35 47 2 -2 -17 -47 -42 -99 -44 -93 -54
-131 -37 -142 5 -3 22 13 38 35 56 78 65 85 37 28 -15 -31 -32 -54 -37 -51 -5
3 -7 -2 -3 -10 3 -9 1 -35 -4 -58 -12 -51 -4 -63 21 -33 9 12 21 19 25 15 5
-4 6 0 3 8 -3 8 2 22 10 30 14 13 15 12 9 -2 -3 -9 -11 -36 -17 -60 -6 -24
-18 -61 -26 -82 -22 -56 -4 -62 44 -14 27 27 42 36 42 25 0 -23 -19 -115 -35
-167 -8 -25 -19 -69 -24 -98 -6 -30 -16 -62 -21 -73 -17 -30 -47 -7 -79 61
l-28 59 -28 -56 -29 -55 -68 4 c-38 3 -71 8 -74 11 -6 6 12 166 23 201 3 12 8
15 12 7 11 -16 152 55 145 73 -3 8 -29 23 -57 34 -29 11 -51 25 -49 31 4 20
-8 12 -18 -11 -8 -19 -9 -15 -5 17 2 22 8 88 11 147 5 72 11 112 20 119 9 7
14 34 14 75 0 34 5 66 10 69 6 3 10 22 10 42 0 24 9 46 28 68 15 17 28 31 29
31 1 -1 -4 -20 -12 -41z m-748 -77 c-3 -7 -5 -2 -5 12 0 14 2 19 5 13 2 -7 2
-19 0 -25z m97 -175 c7 -31 6 -33 -18 -33 -30 0 -33 17 -14 70 12 37 18 31 32
-37z m1139 -38 c-6 -45 2 -56 25 -33 15 15 15 12 1 -52 -9 -40 -14 -49 -24
-40 -21 18 -27 59 -15 116 14 66 22 71 13 9z m300 -62 c176 -295 310 -613 391
-930 145 -564 159 -1193 40 -1768 -35 -167 -124 -470 -179 -607 -6 -15 -12
-10 -36 25 -35 52 -36 67 -3 159 71 196 130 443 170 718 21 144 30 612 15 817
-26 365 -122 759 -276 1132 -44 108 -175 363 -211 412 -19 26 -34 55 -33 65 0
16 2 16 11 -3 6 -13 14 -23 18 -23 8 0 20 50 20 86 0 13 2 24 4 24 3 0 34 -48
69 -107z m-238 -130 c-3 -18 -11 -35 -17 -39 -6 -4 -8 -3 -4 4 3 6 2 13 -4 17
-16 10 -12 60 8 101 l17 37 3 -44 c2 -24 1 -58 -3 -76z m109 -36 c28 -36 116
-219 116 -239 0 -13 -61 -58 -79 -58 -5 0 -21 33 -36 73 -14 39 -30 79 -36 87
-28 47 -49 91 -49 107 0 10 10 38 21 63 20 42 22 44 30 22 5 -13 20 -37 33
-55z m-6635 -94 c1 -106 -17 -100 -21 8 -2 50 -1 93 2 95 10 11 19 -35 19
-103z m-34 68 c-3 -5 -7 -35 -9 -66 -4 -52 -16 -91 -16 -51 0 10 -5 14 -11 11
-6 -4 -8 -14 -4 -24 5 -12 4 -13 -6 -4 -10 10 -10 21 0 55 13 43 37 88 47 88
3 0 3 -4 -1 -9z m5108 -18 c-13 -2 -33 -2 -45 0 -13 2 -3 4 22 4 25 0 35 -2
23 -4z m1343 -42 c4 -11 8 -10 19 5 13 17 14 17 6 -11 -11 -40 3 -76 26 -69
15 5 15 4 3 -5 -8 -5 -11 -13 -7 -17 4 -4 15 0 25 9 10 10 22 17 26 17 4 0
-10 -15 -32 -33 -21 -18 -54 -50 -71 -70 -27 -30 -35 -34 -46 -24 -12 13 -11
25 10 140 4 21 12 40 16 43 5 3 9 17 10 32 1 25 2 23 15 -17z m-6168 -6 c6 -6
-30 -82 -66 -138 -24 -37 -46 -60 -62 -64 -14 -3 -31 -10 -37 -16 -24 -18 -13
8 27 70 21 33 55 71 75 83 19 12 40 31 46 43 16 28 -105 -68 -127 -102 -27
-40 -45 -55 -70 -59 -30 -3 -30 11 -5 70 17 41 64 87 116 116 16 9 91 7 103
-3z m-428 -113 c0 -27 -3 -51 -6 -54 -3 -3 -25 5 -49 17 -54 29 -67 20 -19
-12 20 -14 33 -30 31 -38 -3 -7 -1 -17 5 -23 8 -8 2 -13 -18 -18 -16 -4 -34
-11 -40 -16 -8 -6 -23 15 -46 64 -63 129 -64 128 60 128 l82 0 0 -48z m5763
-47 l-8 -60 -39 3 c-28 3 -58 17 -102 50 -34 26 -80 57 -101 69 l-38 22 90 -5
c50 -2 111 -6 138 -9 39 -5 49 -3 55 12 6 17 7 16 10 -2 1 -11 -1 -47 -5 -80z
m-4860 -14 c21 -20 43 -44 48 -53 8 -16 7 -16 -22 -4 -50 21 -97 63 -120 108
l-21 40 39 -28 c21 -15 55 -44 76 -63z m5859 47 c-6 -6 -7 0 -4 19 5 21 7 23
10 9 2 -10 0 -22 -6 -28z m-36 -40 c-9 -83 -16 -109 -27 -102 -5 3 -9 -1 -9
-8 0 -24 -24 -48 -38 -39 -13 8 -13 10 43 146 l16 40 -20 -25 c-20 -25 -61
-103 -61 -117 0 -5 -9 -19 -20 -33 -13 -17 -20 -20 -20 -10 0 13 -1 13 -10 0
-16 -25 -12 47 5 79 15 29 123 131 139 131 5 0 5 -28 2 -62z m-5095 2 c35 -11
76 -28 92 -38 33 -23 77 -80 77 -101 0 -14 -1 -14 -10 -1 -5 8 -10 11 -10 7 0
-5 -17 4 -37 20 -21 16 -51 37 -68 47 l-30 17 26 -23 c14 -13 39 -34 56 -46
41 -31 49 -51 20 -50 -56 2 -129 57 -180 135 -15 24 -27 45 -27 48 0 9 28 5
91 -15z m-191 -9 c0 -18 -82 -101 -94 -94 -6 3 -8 3 -4 -2 4 -4 3 -14 -3 -21
-8 -10 0 -18 32 -35 60 -30 149 -90 149 -100 0 -13 -60 2 -112 27 -49 25 -86
33 -58 13 11 -7 6 -8 -20 -3 -50 9 -59 18 -28 24 20 4 25 9 19 19 -7 11 -16
11 -57 -3 -26 -9 -50 -14 -52 -11 -3 3 0 5 7 5 7 0 9 5 6 11 -4 5 1 19 11 30
24 27 5 24 -40 -7 -31 -21 -38 -23 -33 -10 4 10 7 21 7 26 0 15 81 88 118 106
19 9 58 20 86 24 28 4 54 8 59 9 4 0 7 -3 7 -8z m-840 -5 c0 -2 -18 -16 -40
-31 -22 -15 -49 -43 -61 -61 -11 -18 -30 -36 -42 -41 -29 -10 -67 -11 -67 -2
0 4 -6 14 -14 22 -21 20 0 47 66 86 41 23 65 31 106 31 28 0 52 -2 52 -4z
m157 -63 c56 -38 102 -74 103 -82 0 -16 -47 -11 -131 13 -31 9 -90 17 -132 18
-42 2 -77 4 -77 5 0 20 33 59 62 74 21 11 38 24 38 29 0 23 40 6 137 -57z
m4703 36 c44 -25 91 -86 109 -142 7 -20 13 -77 13 -125 1 -135 -35 -256 -142
-477 -107 -220 -228 -397 -403 -587 -96 -105 -99 -109 -108 -170 -14 -99 -11
-190 7 -216 33 -48 90 -18 212 110 39 40 45 55 71 159 114 460 463 741 784
631 115 -40 227 -147 227 -218 0 -29 -4 -34 -44 -49 -62 -24 -86 -17 -119 33
-40 59 -70 76 -131 76 -97 -2 -189 -70 -280 -208 -99 -150 -147 -275 -149
-395 -2 -83 12 -111 56 -111 92 0 231 159 355 406 12 23 33 55 47 73 25 29 30
31 98 31 73 0 142 -13 152 -29 2 -5 -7 -35 -21 -67 -75 -167 -127 -373 -106
-419 21 -47 92 -27 170 48 l42 41 0 -64 0 -65 -70 -67 c-107 -103 -191 -135
-276 -108 -79 25 -122 85 -131 185 -3 36 -9 65 -12 65 -3 0 -25 -24 -48 -53
-48 -62 -158 -154 -223 -188 -61 -31 -160 -33 -210 -4 -45 27 -96 95 -112 148
-6 23 -13 43 -14 45 -1 2 -22 -18 -45 -45 -135 -150 -234 -214 -343 -221 -82
-5 -120 20 -161 105 -16 34 -32 62 -35 62 -3 1 -14 -13 -23 -29 -33 -55 -127
-148 -171 -170 -54 -26 -146 -29 -181 -6 -41 27 -74 80 -88 140 l-13 58 -54
-74 c-130 -174 -241 -253 -351 -252 -100 1 -174 64 -214 181 l-12 34 -56 -69
c-109 -133 -199 -204 -288 -228 -74 -19 -105 -18 -157 7 -52 26 -75 59 -103
154 -19 63 -21 86 -16 223 l6 152 -60 -32 c-65 -35 -66 -36 -99 -143 -84 -272
-305 -504 -529 -555 -32 -8 -86 -10 -133 -7 -66 4 -86 10 -128 37 -68 44 -113
99 -142 173 -20 54 -23 79 -23 197 1 156 20 240 90 401 49 114 114 207 211
305 157 159 382 216 542 138 99 -49 158 -167 166 -332 2 -46 6 -85 9 -88 3 -4
33 9 66 27 56 31 60 35 66 78 10 71 33 162 81 323 69 231 173 461 282 624 114
169 219 249 347 261 59 5 71 3 127 -25 46 -23 71 -43 91 -74 28 -42 29 -46 24
-143 -5 -114 -31 -203 -97 -337 -112 -226 -322 -528 -505 -726 -59 -64 -63
-76 -71 -212 -8 -134 6 -184 51 -187 42 -4 96 37 176 132 66 78 67 80 78 162
20 143 84 301 178 442 41 62 166 181 225 216 79 47 140 66 228 72 101 7 176
-10 248 -57 71 -46 120 -116 103 -148 -12 -22 -79 -52 -115 -52 -14 0 -37 15
-59 40 -58 62 -125 63 -218 4 -121 -76 -252 -318 -279 -514 -18 -134 -1 -200
54 -200 92 0 221 173 320 431 20 53 46 106 56 117 26 28 80 42 160 42 88 0 94
-5 75 -61 -56 -157 -91 -390 -66 -437 19 -35 41 -26 103 39 75 78 84 98 87
189 6 162 77 488 159 730 166 488 348 797 504 854 55 20 126 14 178 -15z
m1521 -65 c47 -126 70 -196 65 -201 -2 -2 -42 15 -89 39 -84 43 -85 44 -71 68
19 35 17 78 -4 105 -17 21 -20 22 -48 7 -16 -8 -42 -25 -59 -37 -45 -33 -63
-40 -40 -17 30 32 199 131 208 123 4 -4 21 -43 38 -87z m-786 46 c-5 -22 1
-44 28 -92 39 -71 63 -149 53 -174 -5 -13 -9 -14 -21 -4 -8 7 -15 21 -15 31 0
11 -7 19 -15 19 -10 0 -15 11 -16 33 0 17 -4 41 -9 52 -6 15 -9 7 -9 -31 -1
-78 -13 -174 -21 -174 -16 0 -40 82 -40 133 0 60 12 110 43 184 25 60 32 67
22 23z m-6371 -34 c9 -30 16 -57 16 -60 0 -3 -20 -6 -45 -6 -25 0 -45 3 -45 7
0 16 44 113 51 113 4 0 15 -24 23 -54z m4311 44 c59 -5 143 -22 205 -41 95
-28 122 -32 280 -38 l175 -6 -119 -14 c-172 -20 -279 -11 -397 32 -104 38
-199 56 -306 59 -64 1 -66 1 -23 8 66 10 75 10 185 0z m-885 -44 c223 -12 225
-12 165 -25 -83 -19 -274 -9 -392 19 -99 23 -124 38 -45 25 26 -4 148 -12 272
-19z m3270 -75 c-8 -54 -17 -82 -28 -86 -23 -8 -25 -1 -18 58 7 51 41 125 53
114 3 -4 0 -42 -7 -86z m-6580 64 c0 -1 -9 -5 -19 -8 -13 -3 -18 -1 -14 9 4
10 33 10 33 -1z m35 5 c-3 -5 -11 -10 -16 -10 -6 0 -7 5 -4 10 3 6 11 10 16
10 6 0 7 -4 4 -10z m2477 -20 c48 -14 93 -52 106 -90 l11 -29 -47 4 c-26 3
-86 7 -134 11 -91 6 -108 13 -84 34 18 14 70 17 116 6 l35 -9 -33 28 c-32 27
-42 55 -19 55 6 0 29 -5 49 -10z m-199 -33 c20 -11 37 -24 37 -29 0 -16 -51
-29 -68 -17 -15 9 -15 10 1 5 10 -3 15 -2 12 3 -10 18 -119 33 -185 28 -50 -5
-59 -4 -40 4 98 41 176 42 243 6z m-727 -1 c3 -13 4 -37 2 -52 l-4 -29 -19 32
c-11 18 -26 33 -32 33 -7 0 -13 4 -13 10 0 5 7 7 15 4 9 -4 15 0 15 10 0 25
29 19 36 -8z m5344 6 c0 -10 -11 -29 -25 -42 -26 -24 -65 -37 -65 -21 0 5 -19
7 -42 4 l-43 -5 25 21 c25 21 113 59 138 60 6 1 12 -7 12 -17z m-4183 -17 c31
-8 74 -15 95 -15 45 0 58 -17 23 -30 -29 -11 -68 -4 -103 18 -12 8 -39 20 -60
28 -50 18 -26 17 45 -1z m1478 -38 c77 -25 176 -53 220 -62 86 -17 337 -35
398 -27 21 2 37 0 37 -6 0 -6 -73 -13 -186 -17 -234 -9 -326 2 -503 60 -74 25
-150 45 -170 45 -20 0 -68 9 -106 21 -85 25 -235 28 -307 6 -27 -8 -46 -11
-43 -7 5 8 78 26 140 34 17 2 109 3 205 2 l175 -3 140 -46z m-3416 29 c22 -12
22 -14 5 -21 -11 -5 -25 -7 -33 -6 -8 1 -10 -3 -6 -11 4 -7 -4 0 -19 16 -14
16 -26 31 -26 33 0 8 58 1 79 -11z m4101 4 c0 -6 -23 -9 -52 -9 -49 2 -51 2
-18 9 53 11 70 11 70 0z m1810 -4 c0 -3 -4 -8 -10 -11 -5 -3 -10 -1 -10 4 0 6
5 11 10 11 6 0 10 -2 10 -4z m-6825 -20 c33 -14 67 -56 45 -56 -6 0 -8 -4 -5
-10 8 -12 -20 -2 -60 22 -16 10 -37 18 -45 18 -8 0 1 -10 20 -21 19 -12 38
-27 42 -33 9 -14 -30 -29 -58 -22 -26 7 -63 58 -46 64 20 6 13 22 -10 23 -16
0 -11 5 17 14 53 17 60 17 100 1z m2845 -1 c35 -18 60 -52 60 -82 0 -30 -17
-38 -39 -19 -21 19 -32 21 -25 3 3 -8 -2 -14 -11 -14 -8 0 -15 4 -15 9 0 5 -4
7 -9 3 -16 -9 -51 46 -51 81 0 31 3 34 30 34 17 0 44 -7 60 -15z m313 4 c12
-7 24 -13 26 -15 5 -5 -69 -68 -102 -86 -18 -10 -47 -18 -65 -18 l-33 0 28 25
28 26 -44 -21 -44 -22 7 29 c4 15 14 35 23 45 38 42 129 61 176 37z m-1418
-107 c-12 -12 -25 23 -24 63 l1 40 15 -48 c8 -27 12 -52 8 -55z m4525 85 c0
-24 -12 -27 -41 -11 -38 19 -37 24 6 24 23 0 35 -5 35 -13z m-2640 -15 c-27
-12 -65 -15 -175 -14 -233 3 -244 16 -20 22 110 3 207 6 215 7 8 1 -1 -6 -20
-15z m2566 -4 c45 -31 77 -89 68 -124 -7 -27 -7 -27 -31 19 -13 26 -28 47 -33
47 -12 0 -12 -2 0 -34 6 -17 6 -26 0 -26 -6 0 -10 -9 -10 -21 0 -11 -5 -17
-10 -14 -6 4 -8 11 -4 16 3 5 1 15 -4 22 -10 12 -22 137 -13 137 3 0 19 -10
37 -22z m-4514 -58 c5 0 27 -19 50 -42 39 -39 41 -43 21 -46 -13 -2 -46 14
-84 40 -76 52 -86 70 -32 57 21 -5 41 -9 45 -9z m128 -10 c11 -8 7 -9 -15 -4
-37 8 -45 14 -19 14 10 0 26 -5 34 -10z m-241 -19 c20 -11 43 -26 49 -34 11
-13 5 -13 -43 -2 -30 7 -79 12 -109 12 -56 -2 -65 11 -23 31 34 17 84 14 126
-7z m1216 -17 l29 -19 -64 -10 -65 -9 45 -7 c25 -3 36 -7 25 -8 -11 -1 -38 -8
-60 -16 -76 -27 -135 -13 -119 29 3 9 25 28 48 42 49 30 114 29 161 -2z m693
11 c4 -4 -2 -13 -13 -22 -16 -12 -39 -13 -120 -8 -128 9 -206 22 -219 36 -8 9
33 10 167 6 98 -3 182 -8 185 -12z m-1620 -7 c19 -19 14 -28 -15 -27 -24 0
-25 2 -9 8 14 5 16 10 8 15 -7 4 -17 4 -24 0 -7 -4 -8 -3 -4 4 9 15 29 15 44
0z m4178 -4 c10 -8 13 -13 7 -9 -9 4 -13 -2 -13 -17 -1 -22 -1 -22 -15 -4 -16
22 -20 46 -7 46 5 0 17 -7 28 -16z m-5878 -51 c50 -40 56 -48 39 -51 -99 -11
-186 -43 -282 -104 -45 -28 -135 -118 -135 -133 0 -5 15 6 33 26 41 45 163
123 178 113 7 -4 9 -3 6 3 -9 15 28 23 61 13 l27 -8 -28 -1 c-31 -1 -46 -26
-28 -44 9 -9 14 -8 21 3 6 9 10 10 10 3 0 -7 -6 -16 -12 -20 -7 -4 -20 -17
-28 -27 -14 -18 -13 -19 5 -12 16 6 17 5 8 -5 -16 -16 -53 -22 -53 -10 0 5 6
11 13 14 6 2 8 8 4 13 -4 5 -12 3 -16 -4 -4 -7 -15 -10 -24 -7 -15 6 -45 -30
-34 -42 3 -2 8 5 12 16 3 12 11 21 16 21 16 0 10 -15 -20 -50 -25 -29 -29 -31
-24 -12 6 26 -12 30 -26 4 -5 -9 -30 -23 -55 -31 -26 -7 -63 -24 -83 -38 l-36
-24 6 76 c4 54 11 83 24 97 13 15 15 22 6 25 -38 13 12 89 65 100 20 4 43 6
50 5 6 -2 12 2 12 8 0 9 -22 14 -57 13 -37 -2 15 48 81 77 26 12 68 22 92 23
25 0 47 4 50 9 14 22 65 6 122 -39z m6900 12 c57 -26 105 -64 123 -98 13 -23
1 -66 -86 -292 -68 -179 -198 -561 -246 -723 -17 -59 -26 -75 -46 -83 -32 -12
-88 14 -116 53 -19 26 -19 29 -2 175 25 215 122 742 177 967 l10 39 65 -6 c37
-4 89 -18 121 -32z m-3909 -6 c65 -37 57 -53 -27 -54 -47 0 -57 3 -54 16 2 17
-24 29 -65 29 -13 0 -22 5 -20 13 7 39 94 37 166 -4z m2911 7 c0 -3 -4 -8 -10
-11 -5 -3 -10 -1 -10 4 0 6 5 11 10 11 6 0 10 -2 10 -4z m-1563 -58 c84 -42
143 -52 265 -44 60 3 113 7 118 9 4 1 9 -2 9 -8 3 -14 -49 -24 -169 -31 -86
-5 -123 -2 -204 15 -55 12 -125 21 -158 21 -51 0 -58 2 -58 19 0 11 -4 23 -10
26 -5 3 -10 11 -10 17 0 6 29 9 83 6 63 -3 94 -10 134 -30z m-2170 -22 c1 -1
-47 -99 -106 -217 -110 -215 -222 -477 -305 -712 l-45 -127 65 0 c76 0 86 -11
59 -71 -24 -52 -90 -111 -148 -134 -54 -20 -52 -17 -93 -210 -35 -161 -44
-366 -20 -451 49 -171 155 -251 361 -275 123 -13 283 6 485 58 74 19 176 45
225 58 1019 264 1446 346 2110 407 187 17 747 17 890 0 243 -29 390 -72 433
-127 34 -43 29 -59 -15 -51 -194 31 -696 32 -1028 1 -234 -22 -607 -78 -870
-130 -374 -75 -681 -161 -1276 -359 -557 -185 -693 -219 -939 -232 -325 -18
-598 101 -729 320 -119 199 -127 446 -26 810 14 49 23 91 21 94 -11 10 -375
-75 -392 -92 -28 -27 -153 -480 -174 -631 -20 -146 -13 -243 29 -384 l10 -34
-97 6 c-139 8 -198 33 -289 122 -80 79 -93 108 -93 216 0 90 29 224 87 402 27
81 47 147 45 147 -39 0 -208 -116 -284 -195 -35 -36 -68 -65 -75 -65 -25 0
-203 184 -203 210 0 21 79 96 150 143 113 74 338 174 479 212 l45 12 74 179
c146 356 233 587 253 673 11 52 -2 97 -32 106 -41 13 -178 -30 -320 -100 -355
-178 -709 -484 -672 -581 10 -27 66 -15 147 31 44 25 82 45 84 45 14 0 -10
-115 -36 -172 -129 -285 -358 -403 -570 -296 -72 36 -124 92 -142 154 -19 64
-9 200 18 256 33 67 130 186 198 244 32 27 70 60 84 73 38 35 325 223 415 272
526 282 927 374 1145 264 58 -29 75 -50 90 -104 22 -82 -17 -237 -145 -582
-84 -226 -127 -350 -123 -354 2 -2 57 7 123 20 66 12 147 26 180 31 56 8 60
11 72 44 128 357 267 700 348 861 59 116 90 142 224 188 83 28 273 45 298 27z
m346 -75 c-6 -9 -13 6 -18 40 l-6 34 14 -35 c7 -19 12 -37 10 -39z m145 -101
c45 -23 82 -45 82 -50 0 -10 -114 -24 -151 -18 -26 3 -63 68 -76 130 l-6 31
34 -26 c19 -14 71 -44 117 -67z m60 80 c96 14 197 12 235 -4 18 -7 47 -28 65
-45 31 -30 32 -34 19 -54 -8 -12 -20 -33 -27 -46 -9 -19 -14 -21 -21 -10 -6
10 -9 8 -9 -9 0 -37 -23 -21 -40 29 -17 46 -50 102 -57 96 -2 -2 6 -25 17 -51
31 -72 27 -81 -21 -54 -25 14 -46 36 -55 57 -8 19 -17 32 -20 28 -3 -3 -1 -14
5 -25 6 -11 8 -22 5 -24 -11 -12 -254 96 -254 113 0 3 21 3 46 -2 27 -5 73 -5
112 1z m1517 -50 c-3 -5 -15 -10 -25 -10 -10 0 -22 5 -25 10 -4 6 7 10 25 10
18 0 29 -4 25 -10z m2140 -12 c-9 -28 -44 -68 -59 -67 -6 0 -5 3 2 6 6 2 12
11 12 18 0 11 39 64 48 65 2 0 0 -10 -3 -22z m-1897 -62 c57 -8 106 -16 108
-19 5 -5 -167 -79 -250 -107 -64 -22 -90 -25 -81 -11 3 5 -8 22 -24 38 -16 15
-32 43 -36 61 -6 27 -3 33 17 41 34 14 148 12 266 -3z m-1632 -38 l49 -21 -80
-18 c-90 -21 -165 -24 -165 -8 0 5 -4 8 -10 4 -7 -4 -50 27 -50 38 0 1 27 3
60 5 33 1 70 7 83 12 35 14 61 11 113 -12z m119 -58 c7 -11 -52 -33 -66 -24
-8 4 -10 3 -5 -4 5 -8 -2 -10 -21 -6 -16 3 -57 -1 -92 -9 -60 -14 -66 -14 -95
5 -23 14 -25 18 -8 13 12 -3 22 -2 22 3 0 5 28 12 63 15 34 3 80 12 102 19 39
14 88 8 100 -12z m-467 -77 c-10 -2 -28 -2 -40 0 -13 2 -5 4 17 4 22 1 32 -1
23 -4z m4691 -453 c15 -289 -4 -553 -60 -835 -28 -142 -104 -433 -115 -444 -9
-10 -24 23 -24 55 0 47 -39 84 -89 84 l-39 0 28 30 c39 42 97 131 126 193 46
102 56 233 28 374 -11 55 -15 132 -14 263 l1 185 44 132 c25 73 55 158 67 190
l22 58 8 -50 c4 -27 12 -133 17 -235z m-583 -394 c57 -37 78 -80 77 -155 -1
-148 -99 -241 -228 -217 -41 8 -90 54 -111 103 -17 38 -18 113 -4 165 33 116
167 169 266 104z m-7242 -625 c44 -19 46 -22 67 -93 92 -316 176 -547 256
-710 23 -48 45 -99 49 -112 5 -22 2 -25 -36 -31 -23 -4 -46 -3 -51 2 -12 12
-99 209 -159 358 -70 176 -115 316 -145 450 -14 66 -28 128 -31 138 -7 21 -6
21 50 -2z m6559 -87 c12 -4 13 -12 6 -32 -19 -57 -30 -197 -36 -435 -4 -182
-9 -245 -17 -237 -19 19 -20 289 -1 495 21 232 18 221 48 209z m993 -126 c3
-43 53 -228 93 -344 35 -103 37 -114 18 -114 -29 0 -48 29 -66 100 l-19 75 -2
-50 c-2 -36 -6 -18 -16 68 -17 151 -30 175 -28 49 1 -53 -1 -84 -5 -68 -10 46
-33 46 -31 0 4 -78 0 -105 -12 -98 -6 4 -25 10 -41 13 -18 4 -31 14 -33 24 -1
9 1 17 5 17 4 0 7 8 7 18 1 9 5 26 9 36 6 14 5 17 -3 12 -8 -4 -12 0 -12 11 0
13 -8 9 -31 -17 -27 -31 -28 -32 -11 -5 99 150 126 199 98 176 -8 -7 -34 -38
-58 -69 -24 -31 -51 -66 -60 -76 -10 -11 -18 -23 -18 -28 0 -4 -5 -8 -11 -8
-8 0 -8 4 0 14 16 19 -13 30 -41 15 -14 -8 -27 -8 -43 -1 -13 6 -33 8 -44 5
-18 -4 -19 -8 -9 -20 7 -9 -4 -6 -27 7 -22 13 -56 28 -75 35 l-35 12 40 18
c22 9 63 25 90 35 66 24 196 83 191 87 -5 5 -236 -74 -250 -86 -6 -5 -29 -14
-50 -20 -38 -10 -41 -9 -74 26 -32 35 -33 37 -14 44 42 16 34 29 -17 29 -43 0
-56 5 -87 33 -21 17 -48 37 -61 42 -17 7 73 10 299 11 251 1 334 4 373 15 28
9 52 14 54 12 2 -1 5 -17 7 -35z m-1288 -51 c10 -11 29 -86 83 -322 10 -44 31
-120 48 -170 17 -49 31 -98 31 -107 0 -12 -14 -19 -50 -27 -94 -20 -117 -16
-164 32 -41 42 -86 65 -172 87 -23 5 -57 22 -77 38 -19 15 -48 36 -63 47 -15
11 -56 46 -91 79 l-63 59 27 49 c54 98 192 198 323 232 70 19 154 20 168 3z
m-5911 -16 c21 -18 22 -22 9 -51 l-13 -33 -17 49 c-9 26 -16 49 -16 51 0 8 17
1 37 -16z m268 -121 c198 -85 442 -282 642 -520 101 -119 313 -417 313 -440 0
-4 -35 -16 -77 -25 -43 -9 -88 -19 -99 -22 -17 -4 -31 10 -74 69 -29 40 -76
102 -104 138 -29 36 -74 94 -102 129 -27 35 -92 116 -144 180 -52 64 -122 150
-154 191 -33 41 -104 127 -158 191 -89 106 -106 129 -94 129 2 0 25 -9 51 -20z
m-67 -119 c32 -41 76 -100 99 -130 24 -31 43 -59 43 -63 0 -5 8 -16 18 -26 25
-26 77 -92 123 -155 42 -60 27 -70 -20 -14 -14 16 -30 34 -36 41 -6 6 -33 39
-60 74 -28 34 -66 82 -85 106 -19 24 -46 58 -60 76 -14 17 -35 44 -46 58 -33
42 -84 128 -84 142 0 20 44 -24 108 -109z m4815 72 c-7 -2 -19 -2 -25 0 -7 3
-2 5 12 5 14 0 19 -2 13 -5z m137 -48 c-7 -8 -18 -15 -24 -15 -6 0 -2 7 8 15
25 19 32 19 16 0z m1412 -81 c53 -13 121 -24 151 -24 45 0 110 -14 126 -26 4
-4 -17 -33 -57 -78 l-33 -38 -47 51 c-40 42 -54 51 -83 51 -18 0 -47 -7 -63
-15 -15 -8 -39 -15 -52 -15 -41 0 -98 -29 -119 -60 -23 -34 -31 -36 -55 -15
-9 8 -34 21 -56 28 l-39 14 -3 82 -3 83 118 -7 c68 -4 159 -17 215 -31z m-452
-34 c0 -48 -4 -61 -19 -70 -35 -18 -48 -12 -56 28 -3 20 -9 47 -12 59 -6 25
20 41 65 42 20 1 22 -3 22 -59z m870 56 c0 -2 -8 -10 -17 -17 -16 -13 -17 -12
-4 4 13 16 21 21 21 13z m-1935 -32 c46 -12 74 -26 96 -48 l30 -31 -158 -18
c-175 -19 -228 -18 -323 6 -36 9 -109 26 -162 38 -54 11 -98 23 -98 27 0 4 57
8 128 9 73 1 150 8 182 16 76 20 226 21 305 1z m-4942 -62 c238 -348 411 -596
537 -771 17 -24 34 -49 36 -55 3 -7 -29 -22 -83 -39 -49 -15 -109 -41 -136
-57 l-47 -30 -36 56 c-143 223 -290 623 -310 839 -3 33 -7 73 -9 89 -4 23 -2
26 9 17 7 -6 25 -28 39 -49z m6772 -26 c-20 -31 -44 -56 -52 -56 -12 0 -12 3
-1 19 22 30 83 98 86 95 2 -1 -13 -28 -33 -58z m-2748 13 c93 -13 190 -38 304
-80 105 -39 215 -68 254 -69 17 0 37 -5 45 -10 30 -19 -153 -11 -251 12 -80
18 -130 22 -329 24 -129 1 -257 7 -285 12 -61 12 -167 41 -174 47 -12 13 12
15 50 4 55 -15 226 -22 234 -10 3 5 -3 12 -12 14 -10 3 -40 10 -66 17 -26 7
-45 16 -42 19 10 10 106 29 152 30 23 0 77 -4 120 -10z m2848 -21 c8 -13 20
-41 26 -63 6 -22 20 -53 32 -69 l20 -29 -34 -29 c-91 -78 -188 -139 -269 -166
-135 -47 -134 -47 -126 -27 5 14 2 16 -16 10 -13 -4 -45 -14 -73 -23 -62 -19
-312 -22 -400 -3 -33 7 -123 23 -200 35 -131 22 -145 27 -218 70 -42 26 -77
52 -77 57 0 5 -25 34 -56 64 -67 65 -62 71 53 62 97 -7 161 -38 186 -89 24
-48 58 -55 190 -38 116 16 162 9 322 -47 97 -33 104 -34 225 -31 106 3 132 7
170 27 42 21 46 25 42 55 -3 26 6 45 50 104 29 39 66 89 82 112 34 46 48 49
71 18z m-5798 -47 c116 -84 151 -206 98 -336 -14 -33 -25 -65 -25 -72 0 -6 -3
-14 -7 -16 -5 -3 -8 32 -9 76 0 58 -7 102 -23 150 -27 79 -40 84 -17 7 9 -29
19 -82 22 -119 l7 -66 -53 60 c-29 33 -61 78 -71 100 -21 46 -24 121 -7 194
14 61 27 64 85 22z m5348 19 c10 -17 -14 -39 -56 -52 -45 -13 -50 -10 -43 19
9 32 85 56 99 33z m-5126 -81 l23 -31 -20 -45 -19 -45 -12 32 c-13 38 -15 120
-3 120 5 0 18 -14 31 -31z m2278 -53 c177 -72 279 -96 417 -97 115 -1 81 -13
-81 -29 -156 -16 -242 -3 -408 58 -71 27 -161 57 -199 67 l-69 19 64 22 c35
12 76 23 91 23 14 1 97 -28 185 -63z m1523 23 c0 -5 4 -8 8 -5 5 3 22 1 38 -4
16 -4 22 -9 14 -10 -8 -1 -25 -3 -37 -4 -24 -3 -40 -13 -32 -20 2 -2 38 -1 79
4 78 9 90 4 90 -32 0 -10 -4 -18 -9 -18 -5 0 -12 8 -14 18 -3 9 -5 3 -6 -15 0
-17 5 -34 12 -36 39 -16 -38 -4 -88 14 -79 28 -97 38 -89 51 4 6 3 8 -2 5 -6
-3 -16 -2 -24 3 -13 8 -12 12 5 24 11 9 25 14 32 11 7 -2 10 2 6 11 -3 7 0 14
6 14 6 0 11 -5 11 -11z m2170 -13 c0 -7 -60 -136 -64 -136 -14 0 -76 32 -76
40 0 11 63 60 77 60 5 0 18 9 28 20 16 18 35 27 35 16z m-5869 -30 c12 -9 30
-21 42 -25 22 -9 22 -9 -3 -19 -14 -6 -50 -18 -80 -26 -50 -14 -60 -22 -114
-91 -32 -41 -61 -75 -64 -75 -7 0 27 50 68 100 21 25 44 59 53 75 8 17 24 39
36 49 11 10 18 22 16 26 -9 15 25 4 46 -14z m3549 19 c0 -3 -6 -15 -12 -26
-11 -18 -10 -23 6 -33 11 -6 31 -22 45 -36 14 -13 33 -25 41 -26 8 -1 44 -13
80 -26 62 -22 63 -23 30 -26 -19 -2 -83 -18 -141 -37 -100 -32 -187 -47 -445
-75 -55 -6 -150 -22 -210 -36 -60 -14 -140 -27 -179 -30 -38 -3 -286 -1 -550
4 l-480 10 -139 36 c-109 28 -167 37 -271 42 -133 7 -385 -10 -385 -26 0 -4
73 -11 163 -15 178 -8 378 -28 417 -43 17 -6 -29 -11 -160 -16 -102 -3 -255
-11 -340 -18 -178 -12 -420 -5 -565 17 -55 8 -120 15 -145 16 -33 0 -40 3 -25
8 11 5 88 6 170 4 147 -5 336 14 358 36 10 10 -41 35 -108 53 -49 13 -46 13
115 20 178 7 327 33 584 103 l128 35 137 -44 c179 -59 364 -96 536 -106 233
-14 430 14 700 100 203 65 353 101 494 120 75 10 139 18 144 19 4 0 7 -1 7 -4z
m-3381 -183 c24 -13 52 -33 62 -45 17 -21 17 -23 -4 -46 -12 -13 -49 -37 -82
-52 -48 -23 -74 -29 -129 -29 -71 0 -212 28 -199 40 24 21 125 52 196 62 105
13 140 26 75 27 -71 1 -186 -26 -253 -59 l-60 -30 65 60 c92 84 129 101 215
97 50 -1 83 -9 114 -25z m-1629 -24 c-14 -6 -70 -32 -125 -58 -122 -58 -156
-72 -162 -66 -6 5 70 57 126 86 68 34 112 49 151 49 34 0 34 -1 10 -11z m7264
-25 c64 -32 156 -94 156 -104 0 -5 -9 -13 -20 -19 -14 -8 -20 -8 -20 0 0 6 -5
8 -12 4 -6 -4 -8 -3 -5 4 10 15 -37 51 -126 97 -42 22 -77 43 -77 48 0 11 49
-3 104 -30z m-2054 -132 c0 -5 -66 -11 -147 -13 -113 -3 -156 -8 -180 -21 -29
-15 -45 -16 -150 -6 -65 6 -119 12 -121 14 -2 2 20 8 50 14 29 5 62 12 73 14
39 9 475 7 475 -2z m2018 2 c-10 -2 -26 -2 -35 0 -10 3 -2 5 17 5 19 0 27 -2
18 -5z m-5866 -49 c25 -8 56 -26 68 -39 l23 -24 -24 -5 c-76 -16 -82 -15 -123
20 -22 19 -52 38 -66 41 l-25 7 25 7 c41 12 74 10 122 -7z m-81 -51 c39 -26
40 -27 18 -35 -18 -7 -27 -3 -45 19 -41 50 -32 55 27 16z m2784 -4 c535 -19
935 -56 1435 -130 389 -58 1132 -235 1073 -256 -6 -2 -58 9 -115 26 -320 92
-1088 234 -1393 256 -44 4 -102 10 -130 15 -131 24 -677 57 -1155 71 -764 23
-1804 -32 -2320 -121 -30 -5 -100 -17 -155 -26 -227 -36 -744 -150 -807 -178
-12 -5 -18 -4 -18 3 0 29 203 87 540 155 835 169 1835 230 3045 185z m3125 -3
c0 -2 -7 -7 -16 -10 -8 -3 -12 -2 -9 4 6 10 25 14 25 6z m-7090 -142 c0 -18
-129 -108 -153 -107 -9 1 -15 -1 -13 -5 3 -4 -7 -9 -22 -10 -26 -2 -26 -2 11
30 21 18 66 48 100 65 62 33 77 38 77 27z m3663 -31 c0 -13 -1 -43 -2 -68 l-1
-45 -60 0 -60 0 0 -245 0 -245 -75 0 c-53 0 -75 4 -75 13 -1 6 0 117 0 245 l1
232 -61 0 -60 0 0 70 0 70 197 -2 197 -3 -1 -22z m339 7 c82 -23 130 -93 129
-190 0 -69 -16 -105 -66 -148 l-35 -32 60 -120 c33 -66 60 -125 60 -131 0 -14
-157 -6 -172 9 -5 5 -29 56 -52 113 -23 57 -46 104 -51 104 -6 0 -13 -47 -16
-105 -4 -58 -7 -109 -8 -113 0 -4 -34 -7 -73 -5 l-73 3 1 50 c0 28 2 168 4
312 l3 262 36 4 c53 7 210 -2 253 -13z m-1056 -20 c77 -33 121 -119 131 -255
11 -157 -38 -268 -139 -319 -49 -24 -74 -29 -169 -35 -72 -4 -113 -3 -114 4
-9 29 -26 608 -19 615 11 11 138 18 214 12 30 -2 73 -12 96 -22z m4095 -3 c41
-24 129 -101 129 -112 0 -14 -48 9 -92 46 -54 45 -83 52 -72 17 9 -30 10 -31
24 -23 9 6 9 10 -1 16 -7 4 -10 11 -6 15 11 12 30 -13 24 -30 -10 -24 -87 -19
-87 6 0 6 6 5 15 -2 12 -10 15 -10 15 4 0 9 -5 16 -11 16 -6 0 -8 9 -3 23 4
12 7 28 7 35 0 18 17 15 58 -11z m-4619 1 c50 -15 99 -70 129 -144 20 -50 23
-77 24 -184 0 -97 -4 -135 -18 -172 -58 -149 -249 -193 -361 -83 -46 44 -59
75 -77 184 -25 155 -3 266 68 342 62 66 141 85 235 57z m1946 -3 c1 -1 -4 -98
-12 -216 -16 -242 -13 -262 40 -267 51 -5 61 15 68 130 3 57 10 157 14 223 l7
120 73 -1 c40 -1 76 -4 79 -7 7 -8 -16 -391 -29 -456 -7 -40 -20 -64 -49 -96
-59 -64 -135 -80 -236 -50 -87 26 -133 98 -133 210 0 62 21 395 26 413 3 10
21 12 76 6 40 -3 74 -8 76 -9z m-2440 -54 c78 -40 128 -128 142 -250 26 -226
-46 -359 -205 -384 -159 -25 -265 118 -265 358 0 96 10 135 50 198 55 86 188
124 278 78z m3123 -12 c23 -13 48 -34 56 -46 13 -20 11 -25 -22 -62 -41 -45
-49 -48 -71 -26 -8 8 -31 17 -50 21 -74 14 -123 -66 -124 -204 0 -80 17 -134
48 -151 26 -14 82 -14 117 -1 24 9 27 7 45 -33 11 -23 20 -47 20 -54 0 -6 -23
-23 -52 -37 -122 -61 -264 -10 -316 113 -20 49 -27 194 -13 277 19 108 77 190
157 220 56 21 152 12 205 -17z m257 -25 c30 -5 32 -7 32 -47 -1 -23 -5 -76
-10 -117 -4 -41 -7 -76 -6 -77 2 -3 62 91 116 180 l23 39 71 -7 c117 -12 116
-5 19 -135 -47 -63 -89 -124 -94 -135 -8 -15 1 -46 36 -130 85 -204 97 -236
92 -242 -4 -3 -41 0 -84 6 -75 11 -113 30 -113 57 0 13 -37 128 -61 191 -9 24
-12 25 -19 12 -5 -9 -12 -43 -15 -75 -3 -33 -8 -79 -11 -103 l-6 -44 -70 6
c-39 3 -72 8 -75 10 -5 6 38 484 53 595 5 35 0 34 122 16z m-3764 -55 c4 -34
6 -63 3 -65 -2 -2 -41 -10 -88 -17 l-84 -13 3 -54 c2 -30 7 -58 11 -62 3 -4
37 -3 75 3 37 6 72 7 76 2 5 -4 10 -35 12 -68 l3 -60 -69 -8 c-38 -4 -72 -10
-75 -12 -2 -3 1 -56 7 -117 6 -61 10 -113 8 -116 -5 -5 -147 -24 -151 -20 -2
2 -8 55 -14 118 -7 63 -14 129 -16 145 -2 17 -11 93 -20 170 -8 77 -17 150
-20 162 -3 12 0 25 6 29 14 8 232 41 285 43 l41 1 7 -61z m-1225 -193 c-6 -6
-209 -96 -251 -111 -21 -8 -38 -10 -38 -6 0 7 185 95 240 114 18 7 55 9 49 3z
m6374 -46 c111 -44 160 -69 137 -70 -17 0 -241 88 -254 101 -20 18 18 8 117
-31z m-5818 -70 c28 -31 25 -87 -5 -111 -53 -40 -130 -11 -130 48 0 65 94 109
135 63z m5173 -10 c41 -38 21 -111 -34 -124 -61 -16 -116 41 -95 96 19 50 89
65 129 28z m-3560 -584 c334 -103 622 -147 957 -148 348 -1 582 31 935 129 69
18 144 41 167 50 35 13 62 14 165 6 l123 -9 -40 -18 c-22 -10 -108 -42 -191
-71 -393 -139 -723 -195 -1149 -195 -283 -1 -514 25 -759 84 -209 51 -477 139
-571 188 l-30 16 45 6 c54 7 105 12 143 14 16 1 108 -22 205 -52z m-614 -40
c392 -171 709 -264 1091 -321 61 -10 130 -21 155 -25 l45 -8 -50 -1 c-59 -1
-327 23 -435 39 -292 44 -561 122 -842 246 -92 41 -172 74 -178 74 -5 0 -10 4
-10 10 0 5 17 12 38 15 20 4 42 8 47 10 24 8 43 3 139 -39z m3355 18 c18 -6
-16 -25 -119 -65 -41 -17 -93 -38 -115 -48 -76 -35 -360 -128 -470 -154 -149
-36 -391 -79 -413 -75 -9 2 46 19 123 37 284 68 611 179 785 266 92 47 110 53
150 48 25 -2 51 -7 59 -9z m-3609 -72 c92 -54 370 -181 515 -235 499 -184 886
-247 1435 -234 135 4 297 13 360 22 287 40 606 120 865 217 174 66 210 82 413
186 l184 93 73 -12 74 -13 -67 -43 c-37 -24 -137 -79 -222 -122 -430 -218
-844 -349 -1310 -413 -225 -30 -730 -33 -940 -5 -207 28 -292 44 -460 87 -377
96 -696 222 -1002 397 -156 89 -168 96 -168 104 0 4 30 11 68 16 74 10 100 4
182 -45z"/>
<path d="M7709 9088 c-1 -7 0 -17 1 -23 1 -5 3 -15 3 -22 0 -6 7 -9 15 -6 10
4 11 8 1 13 -6 5 -9 15 -6 24 3 8 2 18 -3 21 -6 4 -11 0 -11 -7z"/>
<path d="M4418 8292 c-21 -10 -38 -20 -38 -24 0 -4 24 -12 54 -18 30 -6 60
-18 67 -26 21 -26 66 -44 109 -44 41 0 69 13 123 57 16 13 42 23 60 23 l32 1
-40 24 c-49 30 -64 31 -116 4 -23 -11 -43 -18 -47 -15 -3 3 -11 1 -18 -5 -9
-8 -25 -4 -57 15 -50 30 -76 31 -129 8z"/>
<path d="M4023 7778 c-32 -15 -29 -28 6 -28 17 0 42 -11 59 -25 45 -38 94 -34
143 10 22 19 46 35 55 35 8 0 12 5 9 10 -10 16 -83 12 -111 -7 -24 -15 -27
-15 -54 0 -32 19 -74 21 -107 5z"/>
<path d="M3285 7363 c4 -21 8 -38 8 -39 1 -1 24 -6 51 -13 58 -14 65 -9 73 48
l6 41 -73 0 -72 0 7 -37z"/>
<path d="M5990 7280 c0 -6 7 -10 15 -10 8 0 15 2 15 4 0 2 -7 6 -15 10 -8 3
-15 1 -15 -4z"/>
<path d="M6048 7263 c6 -2 18 -2 25 0 6 3 1 5 -13 5 -14 0 -19 -2 -12 -5z"/>
<path d="M2421 7168 c-1 -15 7 -18 42 -18 23 0 49 5 57 10 11 8 7 9 -15 4 -23
-4 -26 -3 -15 5 13 9 13 11 -2 11 -10 0 -18 -4 -18 -10 0 -14 -37 -12 -43 3
-3 7 -6 5 -6 -5z"/>
<path d="M2550 7140 c-12 -7 -10 -9 7 -7 12 0 19 5 17 9 -6 10 -6 10 -24 -2z"/>
<path d="M4286 7117 c3 -10 9 -15 12 -12 3 3 0 11 -7 18 -10 9 -11 8 -5 -6z"/>
<path d="M4302 7070 c0 -14 2 -19 5 -12 2 6 2 18 0 25 -3 6 -5 1 -5 -13z"/>
<path d="M2355 6970 c-8 -13 5 -13 25 0 13 8 13 10 -2 10 -9 0 -20 -4 -23 -10z"/>
<path d="M2730 6956 c0 -2 8 -10 18 -17 15 -13 16 -12 3 4 -13 16 -21 21 -21
13z"/>
<path d="M7455 8083 c4 -14 2 -23 -4 -23 -6 0 -11 -4 -11 -10 0 -16 17 -12 24
6 3 9 1 23 -4 32 -9 14 -10 13 -5 -5z"/>
<path d="M7161 7614 c0 -11 3 -14 6 -6 3 7 2 16 -1 19 -3 4 -6 -2 -5 -13z"/>
<path d="M7216 7517 c3 -10 9 -15 12 -12 3 3 0 11 -7 18 -10 9 -11 8 -5 -6z"/>
<path d="M6760 7357 c1 -1 9 -31 19 -67 l19 -65 -3 55 c-2 30 -4 58 -4 61 -1
4 -8 9 -16 13 -8 3 -15 4 -15 3z"/>
<path d="M6890 7310 c-10 -6 -8 -11 8 -19 27 -14 32 -14 32 3 0 17 -23 27 -40
16z"/>
<path d="M7031 7304 c0 -11 3 -14 6 -6 3 7 2 16 -1 19 -3 4 -6 -2 -5 -13z"/>
<path d="M6858 7273 c7 -3 16 -2 19 1 4 3 -2 6 -13 5 -11 0 -14 -3 -6 -6z"/>
<path d="M7200 7276 c0 -2 7 -23 15 -46 18 -52 19 -51 -2 -43 -10 4 -14 2 -10
-4 11 -17 47 -23 47 -8 0 17 -37 105 -45 105 -3 0 -5 -2 -5 -4z"/>
<path d="M6841 7054 c-1 -11 5 -28 12 -39 12 -15 15 -16 22 -4 5 8 4 11 -1 6
-5 -5 -14 7 -20 25 -9 24 -13 27 -13 12z"/>
<path d="M6888 6983 c6 -2 18 -2 25 0 6 3 1 5 -13 5 -14 0 -19 -2 -12 -5z"/>
<path d="M6930 6986 c0 -2 7 -6 15 -10 8 -3 15 -1 15 4 0 6 -7 10 -15 10 -8 0
-15 -2 -15 -4z"/>
<path d="M7933 7303 c9 -2 23 -2 30 0 6 3 -1 5 -18 5 -16 0 -22 -2 -12 -5z"/>
<path d="M8107 7243 c-4 -3 -7 -11 -7 -17 0 -6 5 -5 12 2 6 6 9 14 7 17 -3 3
-9 2 -12 -2z"/>
<path d="M8085 7200 c3 -5 8 -10 11 -10 2 0 4 5 4 10 0 6 -5 10 -11 10 -5 0
-7 -4 -4 -10z"/>
<path d="M8515 6740 c-4 -12 -5 -24 -2 -27 3 -2 8 5 12 17 4 12 5 24 2 27 -3
2 -8 -5 -12 -17z"/>
<path d="M3144 6770 c-43 -17 -34 -29 11 -14 25 9 45 18 45 20 0 7 -34 3 -56
-6z"/>
<path d="M7215 6569 c-72 -86 -319 -704 -365 -915 -6 -27 -13 -57 -16 -68 -11
-36 15 -6 89 102 123 179 217 369 294 597 51 149 68 280 40 303 -12 11 -19 7
-42 -19z"/>
<path d="M5482 6244 c-105 -123 -280 -542 -358 -859 -18 -70 191 256 291 455
84 168 127 293 129 374 1 44 -3 70 -10 73 -7 2 -30 -17 -52 -43z"/>
<path d="M4276 5509 c-36 -28 -54 -67 -62 -131 -9 -78 10 -135 61 -184 43 -41
100 -63 118 -45 16 16 14 279 -2 324 -20 59 -67 74 -115 36z"/>
<path d="M4027 5167 c-81 -170 -101 -468 -37 -545 10 -12 33 -27 50 -33 26
-10 38 -7 84 15 68 33 115 85 161 175 38 76 85 195 85 216 0 8 -20 16 -52 20
-87 11 -127 27 -173 67 -30 26 -51 56 -62 89 -10 27 -21 49 -25 49 -3 0 -18
-24 -31 -53z"/>
<path d="M8755 6640 c3 -5 8 -10 11 -10 2 0 4 5 4 10 0 6 -5 10 -11 10 -5 0
-7 -4 -4 -10z"/>
<path d="M1705 6620 c3 -5 8 -10 11 -10 2 0 4 5 4 10 0 6 -5 10 -11 10 -5 0
-7 -4 -4 -10z"/>
<path d="M1628 6573 c7 -3 16 -2 19 1 4 3 -2 6 -13 5 -11 0 -14 -3 -6 -6z"/>
<path d="M4550 6049 c0 -5 5 -7 10 -4 6 3 10 8 10 11 0 2 -4 4 -10 4 -5 0 -10
-5 -10 -11z"/>
<path d="M8178 4303 c29 -2 74 -2 100 0 26 2 2 3 -53 3 -55 0 -76 -1 -47 -3z"/>
<path d="M8328 4253 c7 -3 16 -2 19 1 4 3 -2 6 -13 5 -11 0 -14 -3 -6 -6z"/>
<path d="M8525 4100 c-3 -5 -1 -10 4 -10 6 0 11 5 11 10 0 6 -2 10 -4 10 -3 0
-8 -4 -11 -10z"/>
<path d="M8652 4010 c-16 -25 -15 -30 2 -30 20 0 29 17 19 35 -7 12 -10 11
-21 -5z"/>
<path d="M6555 3610 c-8 -12 20 -24 35 -15 6 3 8 11 5 16 -8 12 -32 12 -40 -1z"/>
<path d="M4527 3533 c-12 -11 -8 -23 8 -23 8 0 15 7 15 15 0 16 -12 20 -23 8z"/>
<path d="M5570 2864 l0 -77 37 6 c46 8 63 29 63 77 0 45 -25 70 -68 70 l-32 0
0 -76z"/>
<path d="M4493 2808 c4 -66 7 -147 7 -180 0 -57 0 -58 29 -58 48 0 78 41 86
115 4 35 4 87 0 117 -12 91 -42 128 -101 128 l-27 0 6 -122z"/>
<path d="M3999 2891 c-23 -18 -24 -25 -24 -143 0 -103 3 -129 20 -163 16 -32
26 -41 51 -43 25 -2 37 3 54 25 21 26 22 35 17 138 -7 177 -49 242 -118 186z"/>
<path d="M3502 2850 c-35 -15 -45 -54 -39 -170 7 -148 42 -212 105 -189 35 13
44 53 40 174 -5 116 -20 165 -57 185 -22 11 -19 11 -49 0z"/>
<path d="M8730 8291 c0 -6 5 -13 10 -16 6 -3 10 1 10 9 0 9 -4 16 -10 16 -5 0
-10 -4 -10 -9z"/>
</g>
</svg>
